<svg width="48" height="48" viewBox="0 0 48 48" fill="none" xmlns="http://www.w3.org/2000/svg">
<path fill-rule="evenodd" clip-rule="evenodd" d="M34.2765 28.9428C33.7558 29.4635 32.9115 29.4635 32.3908 28.9428L24.0003 20.5523L15.6098 28.9428C15.0891 29.4635 14.2449 29.4635 13.7242 28.9428C13.2035 28.4221 13.2035 27.5779 13.7242 27.0572L23.0575 17.7238C23.5782 17.2031 24.4224 17.2031 24.9431 17.7238L34.2765 27.0572C34.7972 27.5779 34.7972 28.4221 34.2765 28.9428Z" fill="white"/>
<path d="M46 8L46 40L50 40L50 8L46 8ZM40 46L8 46L8 50L40 50L40 46ZM2 40L2 8L-2 8L-2 40L2 40ZM8 2L40 2L40 -2L8 -2L8 2ZM2 8C2 4.68629 4.68629 2 8 2L8 -2C2.47715 -2 -2 2.47715 -2 8L2 8ZM8 46C4.68629 46 2 43.3137 2 40L-2 40C-2 45.5228 2.47715 50 8 50L8 46ZM46 40C46 43.3137 43.3137 46 40 46L40 50C45.5228 50 50 45.5228 50 40L46 40ZM50 8C50 2.47715 45.5228 -2 40 -2L40 2C43.3137 2 46 4.68629 46 8L50 8Z" fill="white"/>
</svg>
