<svg width="40" height="40" viewBox="0 0 40 40" fill="none" xmlns="http://www.w3.org/2000/svg">
<rect width="40" height="40" rx="20" fill="white" fill-opacity="0.6"/>
<rect x="4" y="4" width="32" height="32" rx="16" fill="white"/>
<path fill-rule="evenodd" clip-rule="evenodd" d="M13.2929 13.2929C13.6834 12.9024 14.3166 12.9024 14.7071 13.2929L26.7071 25.2929C27.0976 25.6834 27.0976 26.3166 26.7071 26.7071C26.3166 27.0976 25.6834 27.0976 25.2929 26.7071L13.2929 14.7071C12.9024 14.3166 12.9024 13.6834 13.2929 13.2929Z" fill="#F7B928"/>
<path fill-rule="evenodd" clip-rule="evenodd" d="M26.7071 13.2929C26.3166 12.9024 25.6834 12.9024 25.2929 13.2929L13.2929 25.2929C12.9024 25.6834 12.9024 26.3166 13.2929 26.7071C13.6834 27.0976 14.3166 27.0976 14.7071 26.7071L26.7071 14.7071C27.0976 14.3166 27.0976 13.6834 26.7071 13.2929Z" fill="#F7B928"/>
</svg>
