<svg width="40" height="40" fill="none" xmlns="http://www.w3.org/2000/svg"><rect width="40" height="40" rx="20" fill="#fff" fill-opacity=".6"/><rect x="4" y="4" width="32" height="32" rx="16" fill="#fff"/><path d="M18.184 17.615c1.1-.052 2.021-.133 2.763-.244.742-.117 1.335-.257 1.778-.42.449-.17.768-.358.957-.566.188-.215.283-.45.283-.703a.983.983 0 0 0-.235-.645c-.156-.189-.38-.345-.673-.469a4.252 4.252 0 0 0-1.075-.293 9.238 9.238 0 0 0-1.416-.097c-.566 0-1.139.035-1.718.107-.58.072-1.136.17-1.67.293-.534.124-1.035.27-1.504.44-.469.169-.88.348-1.23.537l-1.426-2.344c.332-.195.748-.397 1.25-.606.5-.214 1.067-.41 1.699-.585a17.472 17.472 0 0 1 2.08-.43 16.24 16.24 0 0 1 2.373-.166c1.035 0 1.963.098 2.783.293.827.189 1.524.465 2.09.83.573.358 1.01.8 1.309 1.328.306.527.459 1.126.459 1.797 0 .508-.101.976-.303 1.406-.195.43-.527.817-.996 1.162s-1.094.645-1.875.899c-.782.254-1.755.459-2.92.615v1.69h-2.783v-3.829Zm-.665 7.696c0-.26.053-.505.157-.733.11-.234.267-.436.469-.605.201-.176.445-.313.732-.41.286-.098.609-.147.967-.147s.68.049.966.146c.287.098.528.235.723.41.202.17.355.372.46.606.11.228.165.472.165.733 0 .26-.055.507-.166.742a1.687 1.687 0 0 1-.459.595c-.195.17-.436.303-.723.4a2.813 2.813 0 0 1-.966.157c-.358 0-.68-.052-.967-.156a2.261 2.261 0 0 1-.732-.4 1.795 1.795 0 0 1-.47-.596 1.806 1.806 0 0 1-.155-.742Z" fill="#F7B928"/></svg>