<svg width="805" height="36" fill="none" xmlns="http://www.w3.org/2000/svg"><path d="M-156.512 17.73c0-1.304.246-2.52.739-3.644a8.36 8.36 0 0 1 2.132-2.941c.938-.836 2.079-1.493 3.422-1.97 1.352-.476 2.879-.714 4.582-.714 1.492 0 2.86.152 4.102.457 1.25.297 2.41.754 3.48 1.371l-1.711 2.813a5.9 5.9 0 0 0-1.113-.563 9.206 9.206 0 0 0-1.336-.41 12.163 12.163 0 0 0-1.465-.27c-.5-.062-.996-.093-1.488-.093-1.187 0-2.246.148-3.176.445-.929.289-1.715.7-2.355 1.23a5.261 5.261 0 0 0-1.453 1.887c-.328.727-.493 1.527-.493 2.402 0 .907.172 1.739.516 2.497a5.63 5.63 0 0 0 1.488 1.968c.657.547 1.453.977 2.391 1.29.945.304 2.012.456 3.199.456.539 0 1.074-.039 1.606-.117a13.334 13.334 0 0 0 1.535-.316c.5-.14.98-.305 1.441-.492.461-.196.891-.407 1.289-.633l1.711 2.812c-1 .64-2.156 1.145-3.469 1.512-1.312.36-2.707.54-4.183.54-1.883 0-3.535-.243-4.957-.727-1.422-.493-2.61-1.165-3.563-2.016a8.41 8.41 0 0 1-2.156-3.024 9.812 9.812 0 0 1-.715-3.75Zm20.987.06c0-1.384.254-2.65.761-3.798a8.584 8.584 0 0 1 2.133-2.953c.922-.828 2.024-1.469 3.305-1.922 1.289-.453 2.715-.68 4.277-.68 1.555 0 2.977.227 4.266.68 1.289.453 2.391 1.094 3.305 1.922a8.523 8.523 0 0 1 2.144 2.953c.508 1.149.762 2.414.762 3.797 0 1.39-.254 2.668-.762 3.832a8.732 8.732 0 0 1-2.144 2.988c-.914.836-2.016 1.489-3.305 1.957-1.289.461-2.711.692-4.266.692-1.562 0-2.988-.23-4.277-.692-1.281-.468-2.383-1.12-3.305-1.957a8.796 8.796 0 0 1-2.133-2.988c-.507-1.164-.761-2.441-.761-3.832Zm3.715 0c0 .944.168 1.796.503 2.554a5.803 5.803 0 0 0 1.418 1.945c.61.531 1.325.941 2.145 1.23.828.29 1.727.434 2.695.434.969 0 1.864-.144 2.684-.433a6.362 6.362 0 0 0 2.144-1.23 5.776 5.776 0 0 0 1.418-1.946c.344-.758.516-1.61.516-2.555 0-.945-.172-1.793-.516-2.543a5.446 5.446 0 0 0-1.418-1.898 6.165 6.165 0 0 0-2.144-1.196c-.82-.273-1.715-.41-2.684-.41a8.55 8.55 0 0 0-2.695.41 6.327 6.327 0 0 0-2.145 1.196 5.47 5.47 0 0 0-1.418 1.898c-.335.75-.503 1.598-.503 2.543Zm20.295-9.106h3.714l6.657 6.68 6.656-6.68h3.715V27h-3.715V13.828l-6.656 6.41-6.657-6.41V27h-3.714V8.684Zm24.877 0h15.597v3.257h-11.883v3.657H-72.4v3.058h-10.524v5.098h12.13V27h-15.844V8.684Zm25.777 0h16.383v3.257h-12.668v4.793h10.758v3.059h-10.758V27h-3.715V8.684Zm18.889 0h3.715v15.058h10.652V27h-14.367V8.684Zm16.896 0h15.598v3.257h-11.883v3.657h10.524v3.058h-10.524v5.098h12.13V27h-15.845V8.684Zm24.092 9.011-7.043-9.011h4.547l4.863 6.304L6.27 8.684h4.477L3.575 17.66 10.993 27H6.434L1.22 20.414-4.113 27H-8.6l7.617-9.305Zm18.207-9.011h4.055l4.969 11.824 1.148 2.86.903-2.86 1.828-4.313-3.293-7.511h3.82l1.348 3.574 1.254-3.574h3.82l-3.293 7.511 1.863 4.407 1.125 2.765.867-2.812L42.63 8.684h4.054L38.598 27h-3.68l-1.628-3.633-1.324-3.527-1.325 3.527L28.99 27h-3.68L17.223 8.684Zm30.749 0h3.738V27h-3.738V8.684Zm12.923 3.257h-6.761V8.684h17.238v3.257H64.61V27h-3.715V11.941Zm13.358-3.257h3.715v4.78h11.39v-4.78h3.727V27h-3.727V16.64h-11.39V27h-3.715V8.684Zm29.152 0h3.715v10.09c0 .828.114 1.566.34 2.214.227.64.563 1.184 1.008 1.63a4.477 4.477 0 0 0 1.676 1.019c.664.226 1.437.34 2.32.34.875 0 1.645-.114 2.309-.34.672-.235 1.23-.575 1.675-1.02a4.213 4.213 0 0 0 1.02-1.629c.227-.648.34-1.386.34-2.215V8.683h3.715V19.22c0 1.203-.203 2.297-.61 3.281a6.968 6.968 0 0 1-1.769 2.531c-.774.703-1.723 1.246-2.848 1.63-1.117.382-2.394.573-3.832.573-1.437 0-2.719-.191-3.844-.574-1.117-.383-2.062-.926-2.836-1.629a6.968 6.968 0 0 1-1.769-2.531c-.406-.984-.61-2.078-.61-3.281V8.684Zm22.428 12.867c.664.375 1.336.715 2.016 1.02.687.296 1.398.55 2.133.761.734.203 1.504.36 2.308.469.813.11 1.676.164 2.59.164 1.102 0 2.039-.07 2.813-.211.773-.149 1.402-.348 1.886-.598.493-.258.848-.562 1.067-.914.226-.351.34-.734.34-1.148 0-.664-.278-1.188-.832-1.57-.555-.391-1.411-.587-2.567-.587-.508 0-1.043.036-1.605.106-.563.063-1.133.133-1.711.21-.571.079-1.137.153-1.699.224-.555.062-1.079.093-1.571.093a8.79 8.79 0 0 1-2.367-.316 6.329 6.329 0 0 1-2.004-.95 4.732 4.732 0 0 1-1.383-1.581c-.343-.633-.515-1.371-.515-2.215 0-.5.066-.996.199-1.488.141-.493.359-.961.656-1.407a5.706 5.706 0 0 1 1.172-1.254 6.91 6.91 0 0 1 1.723-1.007c.679-.282 1.461-.5 2.343-.657.891-.164 1.903-.246 3.036-.246.82 0 1.644.047 2.472.14.828.087 1.633.212 2.414.376.789.164 1.547.363 2.274.598.726.226 1.402.48 2.027.761l-1.629 3a16.39 16.39 0 0 0-1.664-.62 18.567 18.567 0 0 0-1.863-.505c-.649-.14-1.32-.25-2.016-.328a16.985 16.985 0 0 0-2.109-.129c-1.024 0-1.867.074-2.531.223-.657.148-1.18.34-1.571.574-.39.227-.664.484-.82.774a1.8 1.8 0 0 0-.223.843c0 .547.246.996.739 1.348.492.344 1.242.516 2.25.516.406 0 .871-.028 1.394-.082l1.664-.2c.586-.07 1.18-.133 1.781-.187.61-.063 1.2-.094 1.77-.094 1.078 0 2.031.121 2.859.363.836.242 1.536.59 2.098 1.043.563.446.988.989 1.277 1.63.289.632.434 1.343.434 2.132 0 1.055-.246 1.996-.738 2.824-.485.82-1.18 1.516-2.086 2.086-.899.563-1.985.992-3.258 1.29-1.273.288-2.691.433-4.254.433-1.031 0-2.039-.067-3.023-.2a22.745 22.745 0 0 1-2.836-.538 23.128 23.128 0 0 1-2.578-.856 19.59 19.59 0 0 1-2.262-1.102l1.98-3.011Z" fill="#fff"/><circle cx="189" cy="18" r="18" fill="#000"/><path d="M232.488 17.73c0-1.304.246-2.52.739-3.644a8.36 8.36 0 0 1 2.132-2.941c.938-.836 2.079-1.493 3.422-1.97 1.352-.476 2.879-.714 4.582-.714 1.492 0 2.86.152 4.102.457 1.25.297 2.41.754 3.48 1.371l-1.711 2.813a5.9 5.9 0 0 0-1.113-.563 9.206 9.206 0 0 0-1.336-.41 12.163 12.163 0 0 0-1.465-.27c-.5-.062-.996-.093-1.488-.093-1.187 0-2.246.148-3.176.445-.929.289-1.715.7-2.355 1.23a5.261 5.261 0 0 0-1.453 1.887c-.328.727-.493 1.527-.493 2.402 0 .907.172 1.739.516 2.497a5.63 5.63 0 0 0 1.488 1.968c.657.547 1.453.977 2.391 1.29.945.304 2.012.456 3.199.456.539 0 1.074-.039 1.606-.117a13.334 13.334 0 0 0 1.535-.316c.5-.14.98-.305 1.441-.492.461-.196.891-.407 1.289-.633l1.711 2.812c-1 .64-2.156 1.145-3.469 1.512-1.312.36-2.707.54-4.183.54-1.883 0-3.535-.243-4.957-.727-1.422-.493-2.61-1.165-3.563-2.016a8.41 8.41 0 0 1-2.156-3.024 9.812 9.812 0 0 1-.715-3.75Zm20.987.06c0-1.384.254-2.65.761-3.798a8.584 8.584 0 0 1 2.133-2.953c.922-.828 2.024-1.469 3.305-1.922 1.289-.453 2.715-.68 4.277-.68 1.555 0 2.977.227 4.266.68 1.289.453 2.391 1.094 3.305 1.922a8.523 8.523 0 0 1 2.144 2.953c.508 1.149.762 2.414.762 3.797 0 1.39-.254 2.668-.762 3.832a8.732 8.732 0 0 1-2.144 2.988c-.914.836-2.016 1.489-3.305 1.957-1.289.461-2.711.692-4.266.692-1.562 0-2.988-.23-4.277-.692-1.281-.468-2.383-1.12-3.305-1.957a8.796 8.796 0 0 1-2.133-2.988c-.507-1.164-.761-2.441-.761-3.832Zm3.715 0c0 .944.168 1.796.503 2.554a5.803 5.803 0 0 0 1.418 1.945c.61.531 1.325.941 2.145 1.23.828.29 1.727.434 2.695.434.969 0 1.864-.144 2.684-.433a6.362 6.362 0 0 0 2.144-1.23 5.776 5.776 0 0 0 1.418-1.946c.344-.758.516-1.61.516-2.555 0-.945-.172-1.793-.516-2.543a5.446 5.446 0 0 0-1.418-1.898 6.165 6.165 0 0 0-2.144-1.196c-.82-.273-1.715-.41-2.684-.41a8.55 8.55 0 0 0-2.695.41 6.327 6.327 0 0 0-2.145 1.196 5.47 5.47 0 0 0-1.418 1.898c-.335.75-.503 1.598-.503 2.543Zm20.295-9.106h3.714l6.657 6.68 6.656-6.68h3.715V27h-3.715V13.828l-6.656 6.41-6.657-6.41V27h-3.714V8.684Zm24.877 0h15.597v3.257h-11.883v3.657H316.6v3.058h-10.524v5.098h12.129V27h-15.843V8.684Zm25.777 0h16.383v3.257h-12.668v4.793h10.758v3.059h-10.758V27h-3.715V8.684Zm18.889 0h3.715v15.058h10.652V27h-14.367V8.684Zm16.896 0h15.598v3.257h-11.883v3.657h10.524v3.058h-10.524v5.098h12.129V27h-15.844V8.684Zm24.092 9.011-7.043-9.011h4.547l4.863 6.304 4.887-6.304h4.477l-7.172 8.976 7.418 9.34h-4.559l-5.215-6.586L384.887 27h-4.488l7.617-9.305Zm18.207-9.011h4.055l4.969 11.824 1.148 2.86.903-2.86 1.828-4.313-3.293-7.511h3.82l1.348 3.574 1.254-3.574h3.82l-3.293 7.511 1.863 4.407 1.125 2.765.867-2.812 4.993-11.871h4.054L427.598 27h-3.679l-1.629-3.633-1.324-3.527-1.325 3.527L417.989 27h-3.68l-8.086-18.316Zm30.749 0h3.738V27h-3.738V8.684Zm12.923 3.257h-6.761V8.684h17.238v3.257h-6.762V27h-3.715V11.941Zm13.358-3.257h3.715v4.78h11.39v-4.78h3.727V27h-3.727V16.64h-11.39V27h-3.715V8.684Zm29.152 0h3.715v10.09c0 .828.114 1.566.34 2.214.227.64.563 1.184 1.008 1.63a4.477 4.477 0 0 0 1.676 1.019c.664.226 1.437.34 2.32.34.875 0 1.645-.114 2.309-.34.672-.235 1.23-.575 1.675-1.02a4.213 4.213 0 0 0 1.02-1.629c.227-.648.34-1.386.34-2.215V8.683h3.715V19.22c0 1.203-.203 2.297-.61 3.281a6.968 6.968 0 0 1-1.769 2.531c-.774.703-1.723 1.246-2.848 1.63-1.117.382-2.394.573-3.832.573-1.437 0-2.719-.191-3.844-.574-1.117-.383-2.062-.926-2.836-1.629a6.968 6.968 0 0 1-1.769-2.531c-.406-.984-.61-2.078-.61-3.281V8.684Zm22.428 12.867c.664.375 1.336.715 2.016 1.02.687.296 1.398.55 2.133.761.734.203 1.504.36 2.308.469.813.11 1.676.164 2.59.164 1.102 0 2.039-.07 2.813-.211.773-.149 1.402-.348 1.886-.598.493-.258.848-.562 1.067-.914.226-.351.34-.734.34-1.148 0-.664-.278-1.188-.832-1.57-.555-.391-1.411-.587-2.567-.587-.508 0-1.043.036-1.605.106-.563.063-1.133.133-1.711.21-.571.079-1.137.153-1.699.224-.555.062-1.079.093-1.571.093a8.79 8.79 0 0 1-2.367-.316 6.329 6.329 0 0 1-2.004-.95 4.732 4.732 0 0 1-1.383-1.581c-.343-.633-.515-1.371-.515-2.215 0-.5.066-.996.199-1.488.141-.493.359-.961.656-1.407a5.706 5.706 0 0 1 1.172-1.254 6.91 6.91 0 0 1 1.723-1.007c.679-.282 1.461-.5 2.343-.657.891-.164 1.903-.246 3.036-.246.82 0 1.644.047 2.472.14.828.087 1.633.212 2.414.376.789.164 1.547.363 2.274.598.726.226 1.402.48 2.027.761l-1.629 3a16.39 16.39 0 0 0-1.664-.62 18.567 18.567 0 0 0-1.863-.505c-.649-.14-1.32-.25-2.016-.328a16.985 16.985 0 0 0-2.109-.129c-1.024 0-1.867.074-2.531.223-.657.148-1.18.34-1.571.574-.39.227-.664.484-.82.774a1.8 1.8 0 0 0-.223.843c0 .547.246.996.739 1.348.492.344 1.242.516 2.25.516.406 0 .871-.028 1.394-.082l1.664-.2c.586-.07 1.18-.133 1.781-.187.61-.063 1.2-.094 1.77-.094 1.078 0 2.031.121 2.859.363.836.242 1.536.59 2.098 1.043.563.446.988.989 1.277 1.63.289.632.434 1.343.434 2.132 0 1.055-.246 1.996-.738 2.824-.485.82-1.18 1.516-2.086 2.086-.899.563-1.985.992-3.258 1.29-1.273.288-2.691.433-4.254.433-1.031 0-2.039-.067-3.023-.2a22.745 22.745 0 0 1-2.836-.538 23.128 23.128 0 0 1-2.578-.856 19.59 19.59 0 0 1-2.262-1.102l1.98-3.011Z" fill="#fff"/><path fill-rule="evenodd" clip-rule="evenodd" d="M596 9.463 586.556 0 578 8.572 569.445 0 560 9.463l8.555 8.572-8.486 8.502L569.514 36 578 27.497 586.487 36l9.444-9.463-8.486-8.502L596 9.463Z" fill="#000"/><path d="M621.488 17.73c0-1.304.246-2.52.739-3.644a8.36 8.36 0 0 1 2.132-2.941c.938-.836 2.079-1.493 3.422-1.97 1.352-.476 2.879-.714 4.582-.714 1.492 0 2.86.152 4.102.457 1.25.297 2.41.754 3.48 1.371l-1.711 2.813a5.9 5.9 0 0 0-1.113-.563 9.206 9.206 0 0 0-1.336-.41 12.163 12.163 0 0 0-1.465-.27c-.5-.062-.996-.093-1.488-.093-1.187 0-2.246.148-3.176.445-.929.289-1.715.7-2.355 1.23a5.261 5.261 0 0 0-1.453 1.887c-.328.727-.493 1.527-.493 2.402 0 .907.172 1.739.516 2.497a5.63 5.63 0 0 0 1.488 1.968c.657.547 1.453.977 2.391 1.29.945.304 2.012.456 3.199.456.539 0 1.074-.039 1.606-.117a13.334 13.334 0 0 0 1.535-.316c.5-.14.98-.305 1.441-.492.461-.196.891-.407 1.289-.633l1.711 2.812c-1 .64-2.156 1.145-3.469 1.512-1.312.36-2.707.54-4.183.54-1.883 0-3.535-.243-4.957-.727-1.422-.493-2.61-1.165-3.563-2.016a8.41 8.41 0 0 1-2.156-3.024 9.812 9.812 0 0 1-.715-3.75Zm20.987.06c0-1.384.254-2.65.761-3.798a8.584 8.584 0 0 1 2.133-2.953c.922-.828 2.024-1.469 3.305-1.922 1.289-.453 2.715-.68 4.277-.68 1.555 0 2.977.227 4.266.68 1.289.453 2.391 1.094 3.305 1.922a8.523 8.523 0 0 1 2.144 2.953c.508 1.149.762 2.414.762 3.797 0 1.39-.254 2.668-.762 3.832a8.732 8.732 0 0 1-2.144 2.988c-.914.836-2.016 1.489-3.305 1.957-1.289.461-2.711.692-4.266.692-1.562 0-2.988-.23-4.277-.692-1.281-.468-2.383-1.12-3.305-1.957a8.796 8.796 0 0 1-2.133-2.988c-.507-1.164-.761-2.441-.761-3.832Zm3.715 0c0 .944.168 1.796.503 2.554a5.803 5.803 0 0 0 1.418 1.945c.61.531 1.325.941 2.145 1.23.828.29 1.727.434 2.695.434.969 0 1.864-.144 2.684-.433a6.362 6.362 0 0 0 2.144-1.23 5.776 5.776 0 0 0 1.418-1.946c.344-.758.516-1.61.516-2.555 0-.945-.172-1.793-.516-2.543a5.446 5.446 0 0 0-1.418-1.898 6.165 6.165 0 0 0-2.144-1.196c-.82-.273-1.715-.41-2.684-.41a8.55 8.55 0 0 0-2.695.41 6.327 6.327 0 0 0-2.145 1.196 5.47 5.47 0 0 0-1.418 1.898c-.335.75-.503 1.598-.503 2.543Zm20.295-9.106h3.714l6.657 6.68 6.656-6.68h3.715V27h-3.715V13.828l-6.656 6.41-6.657-6.41V27h-3.714V8.684Zm24.877 0h15.597v3.257h-11.883v3.657H705.6v3.058h-10.524v5.098h12.129V27h-15.843V8.684Zm25.777 0h16.383v3.257h-12.668v4.793h10.758v3.059h-10.758V27h-3.715V8.684Zm18.889 0h3.715v15.058h10.652V27h-14.367V8.684Zm16.896 0h15.598v3.257h-11.883v3.657h10.524v3.058h-10.524v5.098h12.129V27h-15.844V8.684Zm24.092 9.011-7.043-9.011h4.547l4.863 6.304 4.887-6.304h4.477l-7.172 8.976 7.418 9.34h-4.559l-5.215-6.586L773.887 27h-4.488l7.617-9.305Zm18.207-9.011h4.055l4.969 11.824 1.148 2.86.903-2.86 1.828-4.313-3.293-7.511h3.82l1.348 3.574 1.254-3.574h3.82l-3.293 7.511 1.863 4.407 1.125 2.765.867-2.812 4.993-11.871h4.054L816.598 27h-3.679l-1.629-3.633-1.324-3.527-1.325 3.527L806.989 27h-3.68l-8.086-18.316Zm30.749 0h3.738V27h-3.738V8.684Zm12.923 3.257h-6.761V8.684h17.238v3.257h-6.762V27h-3.715V11.941Zm13.358-3.257h3.715v4.78h11.39v-4.78h3.727V27h-3.727V16.64h-11.39V27h-3.715V8.684Zm29.152 0h3.715v10.09c0 .828.114 1.566.34 2.214.227.64.563 1.184 1.008 1.63a4.477 4.477 0 0 0 1.676 1.019c.664.226 1.437.34 2.32.34.875 0 1.645-.114 2.309-.34.672-.235 1.23-.575 1.675-1.02a4.213 4.213 0 0 0 1.02-1.629c.227-.648.34-1.386.34-2.215V8.683h3.715V19.22c0 1.203-.203 2.297-.61 3.281a6.968 6.968 0 0 1-1.769 2.531c-.774.703-1.723 1.246-2.848 1.63-1.117.382-2.394.573-3.832.573-1.437 0-2.719-.191-3.844-.574-1.117-.383-2.062-.926-2.836-1.629a6.968 6.968 0 0 1-1.769-2.531c-.406-.984-.61-2.078-.61-3.281V8.684Zm22.428 12.867c.664.375 1.336.715 2.016 1.02.687.296 1.398.55 2.133.761.734.203 1.504.36 2.308.469.813.11 1.676.164 2.59.164 1.102 0 2.039-.07 2.813-.211.773-.149 1.402-.348 1.886-.598.493-.258.848-.562 1.067-.914.226-.351.34-.734.34-1.148 0-.664-.278-1.188-.832-1.57-.555-.391-1.411-.587-2.567-.587-.508 0-1.043.036-1.605.106-.563.063-1.133.133-1.711.21-.571.079-1.137.153-1.699.224-.555.062-1.079.093-1.571.093a8.79 8.79 0 0 1-2.367-.316 6.329 6.329 0 0 1-2.004-.95 4.732 4.732 0 0 1-1.383-1.581c-.343-.633-.515-1.371-.515-2.215 0-.5.066-.996.199-1.488.141-.493.359-.961.656-1.407a5.706 5.706 0 0 1 1.172-1.254 6.91 6.91 0 0 1 1.723-1.007c.679-.282 1.461-.5 2.343-.657.891-.164 1.903-.246 3.036-.246.82 0 1.644.047 2.472.14.828.087 1.633.212 2.414.376.789.164 1.547.363 2.274.598.726.226 1.402.48 2.027.761l-1.629 3a16.39 16.39 0 0 0-1.664-.62 18.567 18.567 0 0 0-1.863-.505c-.649-.14-1.32-.25-2.016-.328a16.985 16.985 0 0 0-2.109-.129c-1.024 0-1.867.074-2.531.223-.657.148-1.18.34-1.571.574-.39.227-.664.484-.82.774a1.8 1.8 0 0 0-.223.843c0 .547.246.996.739 1.348.492.344 1.242.516 2.25.516.406 0 .871-.028 1.394-.082l1.664-.2c.586-.07 1.18-.133 1.781-.187.61-.063 1.2-.094 1.77-.094 1.078 0 2.031.121 2.859.363.836.242 1.536.59 2.098 1.043.563.446.988.989 1.277 1.63.289.632.434 1.343.434 2.132 0 1.055-.246 1.996-.738 2.824-.485.82-1.18 1.516-2.086 2.086-.899.563-1.985.992-3.258 1.29-1.273.288-2.691.433-4.254.433-1.031 0-2.039-.067-3.023-.2a22.745 22.745 0 0 1-2.836-.538 23.128 23.128 0 0 1-2.578-.856 19.59 19.59 0 0 1-2.262-1.102l1.98-3.011Z" fill="#fff"/></svg>