<svg width="48" height="48" fill="none" xmlns="http://www.w3.org/2000/svg"><g clip-path="url(#a)"><path d="M35.15 13.966a26.333 26.333 0 0 0-6.433-1.962.098.098 0 0 0-.104.047c-.277.486-.585 1.12-.8 1.62a24.454 24.454 0 0 0-7.226 0 16.285 16.285 0 0 0-.813-1.62.103.103 0 0 0-.104-.05 26.305 26.305 0 0 0-6.433 1.964.093.093 0 0 0-.042.035c-4.098 6.025-5.221 11.9-4.67 17.703a.105.105 0 0 0 .041.072 26.376 26.376 0 0 0 7.892 3.925.103.103 0 0 0 .11-.035 18.207 18.207 0 0 0 1.615-2.585.098.098 0 0 0-.054-.137c-.85-.32-1.675-.707-2.465-1.156a.099.099 0 0 1-.01-.165c.166-.122.332-.25.49-.378a.098.098 0 0 1 .102-.013c5.172 2.323 10.772 2.323 15.883 0a.099.099 0 0 1 .104.012c.158.13.323.257.49.38a.099.099 0 0 1-.008.164 16.26 16.26 0 0 1-2.467 1.155.099.099 0 0 0-.053.138 20.666 20.666 0 0 0 1.613 2.584.101.101 0 0 0 .11.037 26.287 26.287 0 0 0 7.904-3.926.1.1 0 0 0 .042-.07c.659-6.709-1.103-12.537-4.673-17.702a.079.079 0 0 0-.041-.037ZM18.956 28.17c-1.556 0-2.84-1.408-2.84-3.135 0-1.727 1.259-3.134 2.84-3.134 1.594 0 2.866 1.419 2.84 3.134 0 1.728-1.258 3.135-2.84 3.135Zm10.502 0c-1.557 0-2.84-1.408-2.84-3.135 0-1.727 1.258-3.134 2.84-3.134 1.594 0 2.866 1.419 2.84 3.134 0 1.728-1.245 3.135-2.84 3.135Z" fill="#fff"/></g><defs><clipPath id="a"><path fill="#fff" transform="translate(8 12)" d="M0 0h32v24.099H0z"/></clipPath></defs></svg>