<svg width="549" height="32" viewBox="0 0 549 32" fill="none" xmlns="http://www.w3.org/2000/svg">
<path d="M2.16053 23V6.2H14.9525V9.56H5.85653V13.136H13.8725V16.496H5.85653V23H2.16053ZM17.9105 23V6.2H21.6065V19.64H29.9825V23H17.9105ZM32.7699 23V6.2H45.4419V9.488H36.4419V12.896H44.3619V16.184H36.4419V19.712H45.5619V23H32.7699ZM47.576 23L53.432 14.456L47.816 6.2H52.136L55.664 11.648L59.216 6.2H63.416L57.8 14.408L63.656 23H59.336L55.568 17.24L51.776 23H47.576ZM84.9255 23.336L82.9815 21.368C81.4615 22.616 79.8215 23.24 78.0615 23.24C76.4135 23.24 75.0615 22.8 74.0055 21.92C72.9495 21.024 72.4215 19.832 72.4215 18.344C72.4215 16.264 73.5095 14.728 75.6855 13.736C74.9015 12.632 74.5095 11.496 74.5095 10.328C74.5095 9.112 74.9655 8.072 75.8775 7.208C76.8055 6.344 78.0455 5.912 79.5975 5.912C81.0055 5.912 82.1415 6.32 83.0055 7.136C83.8855 7.952 84.3255 8.968 84.3255 10.184C84.3255 12.2 83.1495 13.664 80.7975 14.576L83.0295 16.808C83.5575 15.976 84.1015 15.016 84.6615 13.928L87.3735 15.416C86.5415 16.92 85.8055 18.104 85.1655 18.968L87.6375 21.44L84.9255 23.336ZM78.8775 12.632C79.6455 12.344 80.2055 12.024 80.5575 11.672C80.9255 11.32 81.1095 10.88 81.1095 10.352C81.1095 9.872 80.9655 9.496 80.6775 9.224C80.3895 8.936 80.0055 8.792 79.5255 8.792C79.0295 8.792 78.6295 8.952 78.3255 9.272C78.0375 9.592 77.8935 10.016 77.8935 10.544C77.8935 11.184 78.2215 11.88 78.8775 12.632ZM78.4935 20.216C79.2935 20.216 80.1015 19.896 80.9175 19.256L77.7015 15.992C76.6615 16.536 76.1415 17.288 76.1415 18.248C76.1415 18.84 76.3575 19.32 76.7895 19.688C77.2375 20.04 77.8055 20.216 78.4935 20.216ZM97.5277 23V6.2H110.2V9.488H101.2V12.896H109.12V16.184H101.2V19.712H110.32V23H97.5277ZM112.166 23L119.366 6.08H122.774L129.974 23H126.11L124.574 19.232H117.47L115.934 23H112.166ZM118.79 15.968H123.254L121.022 10.52L118.79 15.968ZM132.567 23V6.2H140.247C142.375 6.2 144.007 6.768 145.143 7.904C146.103 8.864 146.583 10.16 146.583 11.792C146.583 14.368 145.383 16.104 142.983 17L147.087 23H142.767L139.119 17.624H136.263V23H132.567ZM136.263 14.36H140.007C140.903 14.36 141.599 14.144 142.095 13.712C142.591 13.264 142.839 12.672 142.839 11.936C142.839 11.152 142.583 10.56 142.071 10.16C141.559 9.744 140.847 9.536 139.935 9.536H136.263V14.36ZM149.911 23V6.2H153.319L161.191 16.544V6.2H164.839V23H161.695L153.559 12.32V23H149.911Z" fill="#C01010"/>
<path d="M193.161 23V6.2H205.953V9.56H196.857V13.136H204.873V16.496H196.857V23H193.161ZM208.911 23V6.2H212.607V19.64H220.983V23H208.911ZM223.77 23V6.2H236.442V9.488H227.442V12.896H235.362V16.184H227.442V19.712H236.562V23H223.77ZM238.576 23L244.432 14.456L238.816 6.2H243.136L246.664 11.648L250.216 6.2H254.416L248.8 14.408L254.656 23H250.336L246.568 17.24L242.776 23H238.576ZM275.925 23.336L273.981 21.368C272.461 22.616 270.821 23.24 269.061 23.24C267.413 23.24 266.061 22.8 265.005 21.92C263.949 21.024 263.421 19.832 263.421 18.344C263.421 16.264 264.509 14.728 266.685 13.736C265.901 12.632 265.509 11.496 265.509 10.328C265.509 9.112 265.965 8.072 266.877 7.208C267.805 6.344 269.045 5.912 270.597 5.912C272.005 5.912 273.141 6.32 274.005 7.136C274.885 7.952 275.325 8.968 275.325 10.184C275.325 12.2 274.149 13.664 271.797 14.576L274.029 16.808C274.557 15.976 275.101 15.016 275.661 13.928L278.373 15.416C277.541 16.92 276.805 18.104 276.165 18.968L278.637 21.44L275.925 23.336ZM269.877 12.632C270.645 12.344 271.205 12.024 271.557 11.672C271.925 11.32 272.109 10.88 272.109 10.352C272.109 9.872 271.965 9.496 271.677 9.224C271.389 8.936 271.005 8.792 270.525 8.792C270.029 8.792 269.629 8.952 269.325 9.272C269.037 9.592 268.893 10.016 268.893 10.544C268.893 11.184 269.221 11.88 269.877 12.632ZM269.493 20.216C270.293 20.216 271.101 19.896 271.917 19.256L268.701 15.992C267.661 16.536 267.141 17.288 267.141 18.248C267.141 18.84 267.357 19.32 267.789 19.688C268.237 20.04 268.805 20.216 269.493 20.216ZM288.528 23V6.2H301.2V9.488H292.2V12.896H300.12V16.184H292.2V19.712H301.32V23H288.528ZM303.166 23L310.366 6.08H313.774L320.974 23H317.11L315.574 19.232H308.47L306.934 23H303.166ZM309.79 15.968H314.254L312.022 10.52L309.79 15.968ZM323.567 23V6.2H331.247C333.375 6.2 335.007 6.768 336.143 7.904C337.103 8.864 337.583 10.16 337.583 11.792C337.583 14.368 336.383 16.104 333.983 17L338.087 23H333.767L330.119 17.624H327.263V23H323.567ZM327.263 14.36H331.007C331.903 14.36 332.599 14.144 333.095 13.712C333.591 13.264 333.839 12.672 333.839 11.936C333.839 11.152 333.583 10.56 333.071 10.16C332.559 9.744 331.847 9.536 330.935 9.536H327.263V14.36ZM340.911 23V6.2H344.319L352.191 16.544V6.2H355.839V23H352.695L344.559 12.32V23H340.911Z" fill="#C01010"/>
<path d="M384.161 23V6.2H396.953V9.56H387.857V13.136H395.873V16.496H387.857V23H384.161ZM399.911 23V6.2H403.607V19.64H411.983V23H399.911ZM414.77 23V6.2H427.442V9.488H418.442V12.896H426.362V16.184H418.442V19.712H427.562V23H414.77ZM429.576 23L435.432 14.456L429.816 6.2H434.136L437.664 11.648L441.216 6.2H445.416L439.8 14.408L445.656 23H441.336L437.568 17.24L433.776 23H429.576ZM466.925 23.336L464.981 21.368C463.461 22.616 461.821 23.24 460.061 23.24C458.413 23.24 457.061 22.8 456.005 21.92C454.949 21.024 454.421 19.832 454.421 18.344C454.421 16.264 455.509 14.728 457.685 13.736C456.901 12.632 456.509 11.496 456.509 10.328C456.509 9.112 456.965 8.072 457.877 7.208C458.805 6.344 460.045 5.912 461.597 5.912C463.005 5.912 464.141 6.32 465.005 7.136C465.885 7.952 466.325 8.968 466.325 10.184C466.325 12.2 465.149 13.664 462.797 14.576L465.029 16.808C465.557 15.976 466.101 15.016 466.661 13.928L469.373 15.416C468.541 16.92 467.805 18.104 467.165 18.968L469.637 21.44L466.925 23.336ZM460.877 12.632C461.645 12.344 462.205 12.024 462.557 11.672C462.925 11.32 463.109 10.88 463.109 10.352C463.109 9.872 462.965 9.496 462.677 9.224C462.389 8.936 462.005 8.792 461.525 8.792C461.029 8.792 460.629 8.952 460.325 9.272C460.037 9.592 459.893 10.016 459.893 10.544C459.893 11.184 460.221 11.88 460.877 12.632ZM460.493 20.216C461.293 20.216 462.101 19.896 462.917 19.256L459.701 15.992C458.661 16.536 458.141 17.288 458.141 18.248C458.141 18.84 458.357 19.32 458.789 19.688C459.237 20.04 459.805 20.216 460.493 20.216ZM479.528 23V6.2H492.2V9.488H483.2V12.896H491.12V16.184H483.2V19.712H492.32V23H479.528ZM494.166 23L501.366 6.08H504.774L511.974 23H508.11L506.574 19.232H499.47L497.934 23H494.166ZM500.79 15.968H505.254L503.022 10.52L500.79 15.968ZM514.567 23V6.2H522.247C524.375 6.2 526.007 6.768 527.143 7.904C528.103 8.864 528.583 10.16 528.583 11.792C528.583 14.368 527.383 16.104 524.983 17L529.087 23H524.767L521.119 17.624H518.263V23H514.567ZM518.263 14.36H522.007C522.903 14.36 523.599 14.144 524.095 13.712C524.591 13.264 524.839 12.672 524.839 11.936C524.839 11.152 524.583 10.56 524.071 10.16C523.559 9.744 522.847 9.536 521.935 9.536H518.263V14.36ZM531.911 23V6.2H535.319L543.191 16.544V6.2H546.839V23H543.695L535.559 12.32V23H531.911Z" fill="#C01010"/>
</svg>
