<svg width="176" height="180" fill="none" xmlns="http://www.w3.org/2000/svg"><path d="M87.657 3C51.36 3 21.553 24.897 7.756 56.28" stroke="#F7B928" stroke-width="5"/><path fill-rule="evenodd" clip-rule="evenodd" d="m170.386 60.455-23.765-10.788 2.277-5.097 17.271 7.81 3.362-18.903 5.467.984-4.61 25.995h-.002Z" fill="#F7B928"/><path d="m146.621 49.667-.456-.203-.203.453.452.206.207-.456Zm23.765 10.788.257-.429-.024-.014-.026-.012-.207.455ZM148.898 44.57l.206-.456-.458-.207-.205.459.457.204Zm17.271 7.81-.206.456.586.265.112-.633-.492-.087Zm3.362-18.903.089-.492-.494-.09-.087.494.492.088Zm5.467.984.492.087.088-.49-.491-.09-.089.493Zm-4.61 25.995-.257.429.622.373.127-.715-.492-.087Zm-23.974-10.333L170.18 60.91l.413-.91-23.765-10.788-.414.91Zm2.027-5.757-2.276 5.098.913.407 2.277-5.097-.914-.408Zm17.934 7.56-17.271-7.812-.412.912 17.271 7.81.412-.91Zm.286.542 3.362-18.904-.984-.175-3.362 18.904.984.175Zm2.781-18.5 5.468.985.177-.984-5.467-.985-.178.985Zm5.064.406-4.611 25.995.985.174 4.61-25.995-.984-.174Zm-3.861 25.653h-.002l-.514.857h.002l.514-.857Z" fill="#CB1717"/><path d="M87.656 3c29.181 0 54.632 14.153 70.834 36.009 3.951 5.33 6.724 10.641 9.429 16.794M88.342 177c36.297 0 66.104-21.897 79.901-53.28" stroke="#F7B928" stroke-width="5"/><path fill-rule="evenodd" clip-rule="evenodd" d="M5.612 119.545v-.001l23.766 10.788-2.277 5.098-17.271-7.811-3.362 18.905L1 145.539l4.61-25.995.001.001Z" fill="#F7B928"/><path d="m5.612 119.544.207-.455-.657-.298-.049.719.5.034Zm0 .001-.257.428.7.421.056-.816-.499-.033Zm23.766 10.787.456.204.203-.454-.452-.205-.207.455ZM27.1 135.43l-.206.455.458.207.205-.458-.457-.204ZM9.83 127.619l.206-.456-.586-.265-.112.633.492.088Zm-3.362 18.905-.089.492.493.089.088-.494-.492-.087ZM1 145.539l-.493-.087-.087.491.491.088.089-.492Zm4.61-25.995.258-.429-.623-.374-.127.716.492.087Zm-.498-.034v.001l.998.067-.998-.068Zm24.472 10.367L5.819 119.089l-.413.911 23.765 10.787.414-.91Zm-2.027 5.757 2.276-5.098-.913-.408-2.276 5.098.913.408Zm-17.934-7.56 17.271 7.811.412-.911-17.271-7.811-.412.911Zm-.286-.543-3.362 18.905.984.175 3.362-18.905-.984-.175Zm-2.781 18.501-5.468-.985-.177.984 5.467.985.178-.984Zm-5.064-.405 4.61-25.996-.984-.174-4.61 25.995.984.175Zm3.86-25.654h.002l.515-.857-.001-.001-.515.858Z" fill="#CB1717"/><path d="M88.343 177c-29.181 0-54.632-14.153-70.834-36.009-3.95-5.33-6.724-10.641-9.429-16.794" stroke="#F7B928" stroke-width="5"/></svg>