<svg width="1265" height="1904" fill="none" xmlns="http://www.w3.org/2000/svg"><path d="m98.142 81.521-.489 2.452.489-2.452ZM392.803 191.05l2.493.177-2.493-.177Zm158.58 388.602-2.465.416 2.465-.416Zm-99.914 675.178h-2.5v.05l.002.04 2.498-.09Zm468.533 196.55-2.489.23 2.489-.23ZM.837.715c-2.427 21.16 8.418 39.369 26.351 53.477C45.106 68.288 70.36 78.54 97.653 83.973l.977-4.904c-26.778-5.331-51.228-15.336-68.35-28.806C13.173 36.805 3.642 20.136 5.804 1.285L.837.715Zm96.816 83.258c34.624 6.894 70.771 11.812 105.327 16.646 34.598 4.84 67.577 9.593 96.032 16.159 28.501 6.577 52.159 14.911 68.279 26.75 15.962 11.724 24.477 26.823 23.018 47.345l4.987.354c1.6-22.489-7.919-39.149-25.046-51.728-16.969-12.464-41.454-20.979-70.114-27.593-28.706-6.624-61.904-11.405-96.463-16.24-34.601-4.84-70.59-9.737-105.043-16.597l-.977 4.904Zm292.656 106.9c-.708 9.958-5.623 18.626-14.023 26.456-8.435 7.863-20.281 14.775-34.555 21.13-28.58 12.722-66.136 22.897-103.856 34.155-37.569 11.213-75.266 23.495-103.578 40.424-28.334 16.943-47.831 38.896-47.831 69.562h5c0-28.099 17.717-48.719 45.397-65.27 27.701-16.564 64.816-28.695 102.442-39.925 37.475-11.185 75.496-21.485 104.459-34.378 14.497-6.454 26.914-13.635 35.931-22.04 9.053-8.439 14.78-18.213 15.601-29.76l-4.987-.354Zm158.609 389.195c5.362 31.811-5.176 54.662-24.143 73.094-19.134 18.593-46.788 32.629-75.567 46.479-28.607 13.768-58.325 27.351-80.822 44.995-22.604 17.727-38.239 39.8-38.239 70.578h5c0-28.738 14.467-49.502 36.324-66.644 21.964-17.226 51.069-30.545 79.905-44.423 28.663-13.795 57.073-28.148 76.883-47.399 19.976-19.412 31.262-43.859 25.589-77.512l-4.93.832ZM330.147 815.214c0 16.03 9.427 28.929 25.021 39.461 15.565 10.513 37.626 18.931 63.807 26.039 52.38 14.219 122.163 23.416 191.669 33.188 69.636 9.791 139.002 20.16 190.953 36.69 25.98 8.267 47.391 18.011 62.264 29.843 14.816 11.787 22.976 25.495 22.976 41.835h5c0-18.29-9.236-33.315-24.863-45.748-15.571-12.387-37.652-22.355-63.861-30.694-52.429-16.682-122.236-27.1-191.773-36.877-69.666-9.795-139.056-18.947-191.055-33.063-26.009-7.06-47.439-15.306-62.318-25.356-14.851-10.03-22.82-21.59-22.82-35.318h-5Zm556.69 207.056c0 32.95-25.933 54.65-66.841 70.94-40.785 16.23-95.247 26.58-150.079 37.45-54.665 10.83-109.69 22.18-151.042 40.46-41.324 18.28-69.906 43.92-69.906 83.71h5c0-36.73 26.152-61.1 66.928-79.13 40.748-18.02 95.19-29.28 149.992-40.14 54.635-10.82 109.641-21.26 150.956-37.71 41.192-16.39 69.992-39.27 69.992-75.58h-5Zm30.676 429.34c1.657 17.67-2.679 31.57-11.418 42.83-8.796 11.32-22.194 20.15-38.95 27.3-33.581 14.34-79.691 21.62-126.583 29.45-46.676 7.8-94.096 16.16-129.562 32.82-17.77 8.35-32.711 18.86-43.072 32.58-10.396 13.77-16.067 30.63-15.513 51.41l4.998-.13c-.525-19.72 4.831-35.45 14.505-48.26 9.71-12.86 23.884-22.93 41.208-31.07 34.724-16.32 81.413-24.59 128.26-32.42 46.632-7.79 93.459-15.15 127.723-29.78 17.167-7.33 31.418-16.58 40.935-28.84 9.573-12.32 14.214-27.51 12.447-46.35l-4.978.46Zm4.978-.46c-4.087-43.59-36.189-68.89-80.818-84.6-44.606-15.7-102.512-22.13-159.716-27.56-57.383-5.45-114.028-9.91-156.694-21.54-21.321-5.81-38.895-13.36-51.258-23.53-12.274-10.1-19.43-22.79-20.038-39.18l-4.996.18c.667 17.99 8.614 31.96 21.857 42.86 13.154 10.82 31.511 18.6 53.12 24.49 43.192 11.78 100.398 16.27 157.536 21.7 57.315 5.44 114.599 11.83 158.529 27.29 43.905 15.46 73.684 39.67 77.5 80.35l4.978-.46ZM86.466 382.6c0 37.819 28.957 60.661 70.818 75.831 41.943 15.2 97.977 23.151 154.342 30.612 56.522 7.483 113.398 14.477 157.54 27.682 44.352 13.269 74.54 32.428 79.752 63.343l4.93-.832c-5.749-34.102-38.844-54.016-83.249-67.301-44.617-13.348-101.976-20.39-158.317-27.848-56.5-7.48-111.959-15.377-153.295-30.357-41.417-15.01-67.521-36.679-67.521-71.13h-5ZM552.415 1668c.569 21.38 12.736 37.26 32.853 49.1 20.028 11.78 48.196 19.75 81.53 25.42 66.68 11.36 155.162 13.73 243.146 18.38 88.155 4.66 175.826 11.61 241.436 32.01 32.8 10.2 59.85 23.7 78.68 41.77 18.76 17.99 29.44 40.59 29.44 69.32h5c0-30.16-11.28-54.04-30.97-72.93-19.62-18.82-47.5-32.62-80.66-42.93-66.3-20.62-154.585-27.58-242.662-32.24-88.247-4.66-176.267-7.01-242.57-18.31-33.158-5.64-60.602-13.48-79.834-24.8-19.141-11.26-29.881-25.78-30.391-44.92l-4.998.13Z" fill="#C01010"/></svg>