<svg width="48" height="48" fill="none" xmlns="http://www.w3.org/2000/svg"><path fill-rule="evenodd" clip-rule="evenodd" d="M24.537.006A24.465 24.465 0 0 0 24 0C10.745 0 0 10.745 0 24c0 .685.029 1.363.085 2.034h6.13A18.09 18.09 0 0 1 6.102 24c0-3.528 1.021-6.817 2.783-9.59v19.18l-.016-.027v9.066a23.99 23.99 0 0 0 5.939 3.547V8.64a17.806 17.806 0 0 1 3.807-1.713v40.467C20.346 47.79 22.148 48 24 48c3.674 0 7.155-.825 10.267-2.301V26.018h3.808v.016h3.709a17.81 17.81 0 0 1-3.709 9.023v8.385C44.089 39.08 48 31.997 48 24 48 12.229 39.525 2.436 28.344.392v40.975a17.9 17.9 0 0 1-3.807.523V.006Zm9.73 19.926h7.167a17.916 17.916 0 0 0-7.167-10.595v10.595Z" fill="#fff"/></svg>