<svg width="653" height="32" fill="none" xmlns="http://www.w3.org/2000/svg"><path d="M-13.492 23V6.2h3.984l4.416 7.104L-.676 6.2h3.984V23H-.364V12.032l-4.728 7.176h-.096l-4.68-7.104V23h-3.624Zm20.836 0V6.2h12.672v3.288h-9v3.408h7.92v3.288h-7.92v3.528h9.12V23H7.344Zm16.078 0V6.2h3.408l7.872 10.344V6.2h3.648V23h-3.144L27.07 12.32V23h-3.648Zm25.97.264c-2.289 0-4.073-.632-5.353-1.896-1.28-1.28-1.92-3.136-1.92-5.568V6.2h3.696v9.504c0 1.344.312 2.376.936 3.096.64.704 1.536 1.056 2.688 1.056 1.152 0 2.04-.344 2.664-1.032.64-.688.96-1.688.96-3V6.2h3.696v9.48c0 2.496-.656 4.384-1.968 5.664-1.296 1.28-3.096 1.92-5.4 1.92ZM85.508 23V6.2h3.984l4.416 7.104L98.324 6.2h3.984V23h-3.672V12.032l-4.728 7.176h-.096l-4.68-7.104V23h-3.624Zm20.836 0V6.2h12.672v3.288h-9v3.408h7.92v3.288h-7.92v3.528h9.12V23h-12.792Zm16.078 0V6.2h3.408l7.872 10.344V6.2h3.648V23h-3.144l-8.136-10.68V23h-3.648Zm25.969.264c-2.288 0-4.072-.632-5.352-1.896-1.28-1.28-1.92-3.136-1.92-5.568V6.2h3.696v9.504c0 1.344.312 2.376.936 3.096.64.704 1.536 1.056 2.688 1.056 1.152 0 2.04-.344 2.664-1.032.64-.688.96-1.688.96-3V6.2h3.696v9.48c0 2.496-.656 4.384-1.968 5.664-1.296 1.28-3.096 1.92-5.4 1.92ZM184.508 23V6.2h3.984l4.416 7.104 4.416-7.104h3.984V23h-3.672V12.032l-4.728 7.176h-.096l-4.68-7.104V23h-3.624Zm20.836 0V6.2h12.672v3.288h-9v3.408h7.92v3.288h-7.92v3.528h9.12V23h-12.792Zm16.078 0V6.2h3.408l7.872 10.344V6.2h3.648V23h-3.144l-8.136-10.68V23h-3.648Zm25.969.264c-2.288 0-4.072-.632-5.352-1.896-1.28-1.28-1.92-3.136-1.92-5.568V6.2h3.696v9.504c0 1.344.312 2.376.936 3.096.64.704 1.536 1.056 2.688 1.056 1.152 0 2.04-.344 2.664-1.032.64-.688.96-1.688.96-3V6.2h3.696v9.48c0 2.496-.656 4.384-1.968 5.664-1.296 1.28-3.096 1.92-5.4 1.92ZM283.508 23V6.2h3.984l4.416 7.104 4.416-7.104h3.984V23h-3.672V12.032l-4.728 7.176h-.096l-4.68-7.104V23h-3.624Zm20.836 0V6.2h12.672v3.288h-9v3.408h7.92v3.288h-7.92v3.528h9.12V23h-12.792Zm16.078 0V6.2h3.408l7.872 10.344V6.2h3.648V23h-3.144l-8.136-10.68V23h-3.648Zm25.969.264c-2.288 0-4.072-.632-5.352-1.896-1.28-1.28-1.92-3.136-1.92-5.568V6.2h3.696v9.504c0 1.344.312 2.376.936 3.096.64.704 1.536 1.056 2.688 1.056 1.152 0 2.04-.344 2.664-1.032.64-.688.96-1.688.96-3V6.2h3.696v9.48c0 2.496-.656 4.384-1.968 5.664-1.296 1.28-3.096 1.92-5.4 1.92ZM382.508 23V6.2h3.984l4.416 7.104 4.416-7.104h3.984V23h-3.672V12.032l-4.728 7.176h-.096l-4.68-7.104V23h-3.624Zm20.836 0V6.2h12.672v3.288h-9v3.408h7.92v3.288h-7.92v3.528h9.12V23h-12.792Zm16.078 0V6.2h3.408l7.872 10.344V6.2h3.648V23h-3.144l-8.136-10.68V23h-3.648Zm25.969.264c-2.288 0-4.072-.632-5.352-1.896-1.28-1.28-1.92-3.136-1.92-5.568V6.2h3.696v9.504c0 1.344.312 2.376.936 3.096.64.704 1.536 1.056 2.688 1.056 1.152 0 2.04-.344 2.664-1.032.64-.688.96-1.688.96-3V6.2h3.696v9.48c0 2.496-.656 4.384-1.968 5.664-1.296 1.28-3.096 1.92-5.4 1.92ZM481.508 23V6.2h3.984l4.416 7.104 4.416-7.104h3.984V23h-3.672V12.032l-4.728 7.176h-.096l-4.68-7.104V23h-3.624Zm20.836 0V6.2h12.672v3.288h-9v3.408h7.92v3.288h-7.92v3.528h9.12V23h-12.792Zm16.078 0V6.2h3.408l7.872 10.344V6.2h3.648V23h-3.144l-8.136-10.68V23h-3.648Zm25.969.264c-2.288 0-4.072-.632-5.352-1.896-1.28-1.28-1.92-3.136-1.92-5.568V6.2h3.696v9.504c0 1.344.312 2.376.936 3.096.64.704 1.536 1.056 2.688 1.056 1.152 0 2.04-.344 2.664-1.032.64-.688.96-1.688.96-3V6.2h3.696v9.48c0 2.496-.656 4.384-1.968 5.664-1.296 1.28-3.096 1.92-5.4 1.92ZM580.508 23V6.2h3.984l4.416 7.104 4.416-7.104h3.984V23h-3.672V12.032l-4.728 7.176h-.096l-4.68-7.104V23h-3.624Zm20.836 0V6.2h12.672v3.288h-9v3.408h7.92v3.288h-7.92v3.528h9.12V23h-12.792Zm16.078 0V6.2h3.408l7.872 10.344V6.2h3.648V23h-3.144l-8.136-10.68V23h-3.648Zm25.969.264c-2.288 0-4.072-.632-5.352-1.896-1.28-1.28-1.92-3.136-1.92-5.568V6.2h3.696v9.504c0 1.344.312 2.376.936 3.096.64.704 1.536 1.056 2.688 1.056 1.152 0 2.04-.344 2.664-1.032.64-.688.96-1.688.96-3V6.2h3.696v9.48c0 2.496-.656 4.384-1.968 5.664-1.296 1.28-3.096 1.92-5.4 1.92Z" fill="#FFC12F"/></svg>