<svg width="24" height="24" fill="none" xmlns="http://www.w3.org/2000/svg"><path fill-rule="evenodd" clip-rule="evenodd" d="M9.715 2.21c1.037-1.721 3.534-1.721 4.57 0L16.8 6.393l4.754 1.101c1.958.454 2.73 2.828 1.412 4.346l-3.199 3.685.422 4.862c.174 2.002-1.846 3.47-3.697 2.686L12 21.168l-4.493 1.904c-1.851.784-3.87-.684-3.697-2.686l.422-4.862-3.2-3.685C-.284 10.321.488 7.947 2.446 7.493l4.754-1.101L9.715 2.21ZM12 3.587 9.484 7.767A2.667 2.667 0 0 1 7.8 8.99l-4.754 1.1 3.199 3.686c.473.545.705 1.26.642 1.979l-.421 4.861 4.493-1.903a2.667 2.667 0 0 1 2.08 0l4.494 1.903-.422-4.861c-.063-.72.17-1.434.643-1.979l3.198-3.685L16.2 8.99a2.667 2.667 0 0 1-1.683-1.223L12 3.586Z" fill="#fff"/></svg>