<svg width="28" height="24" fill="none" xmlns="http://www.w3.org/2000/svg"><path d="M14 24h-.068a.95.95 0 0 1-.655-.337L.89 8.897a.901.901 0 0 1-.198-.385c0-.017-.008-.035-.012-.052a.903.903 0 0 1 .133-.643l.025-.037L5.678.933a.933.933 0 0 1 .61-.39.825.825 0 0 1 .112-.01L13.933 0h.132L21.6.533a.934.934 0 0 1 .713.392l4.85 6.859a.9.9 0 0 1 .141.77.887.887 0 0 1-.19.345L14.724 23.66a.954.954 0 0 1-.333.256A.923.923 0 0 1 14 24ZM8.594 9.215 14 20.884l5.405-11.67H8.595Zm12.854 0-3.683 7.95 6.667-7.95h-2.984Zm-17.884 0 6.666 7.95-3.678-7.95H3.564Zm18.66-5.223-.347 3.401h2.75l-2.403-3.401ZM14 2.492 9.829 7.393h8.341L14 2.492Zm-8.224 1.5L3.373 7.393h2.75l-.347-3.401Zm10.193-2.03 4.099 4.817.465-4.498-4.564-.32Zm-3.941 0-4.562.32.46 4.497 4.102-4.818Z" fill="#fff"/></svg>