<svg width="1141" height="32" viewBox="0 0 1141 32" fill="none" xmlns="http://www.w3.org/2000/svg">
<path d="M8.33184 23.24C11.9558 23.24 14.4998 21.368 14.4998 18.032C14.4998 15.056 12.5798 13.832 9.17184 12.944C6.26784 12.2 5.54784 11.84 5.54784 10.736C5.54784 9.872 6.29184 9.224 7.70784 9.224C9.12384 9.224 10.5878 9.848 12.0758 10.88L13.9958 8.096C12.2918 6.728 10.2038 5.96 7.75584 5.96C4.32384 5.96 1.87584 7.976 1.87584 11.024C1.87584 14.408 4.05984 15.344 7.44384 16.208C10.2518 16.928 10.8278 17.408 10.8278 18.344C10.8278 19.376 9.91584 19.976 8.40384 19.976C6.48384 19.976 4.89984 19.184 3.38784 17.936L1.20384 20.552C3.21984 22.352 5.78784 23.24 8.33184 23.24ZM17.7074 23H21.3554V12.32L29.4914 23H32.6354V6.2H28.9874V16.544L21.1154 6.2H17.7074V23ZM36.6683 23H49.4603V19.712H40.3403V16.184H48.2603V12.896H40.3403V9.488H49.3403V6.2H36.6683V23ZM51.3065 23H55.0745L56.6105 19.232H63.7145L65.2505 23H69.1145L61.9145 6.08H58.5065L51.3065 23ZM57.9305 15.968L60.1625 10.52L62.3945 15.968H57.9305ZM71.7074 23H75.4034V17.864L77.3474 15.848L82.5554 23H86.9954L79.8434 13.328L86.6834 6.2H82.2194L75.4034 13.544V6.2H71.7074V23ZM87.2273 17.312H94.6193V13.808H87.2273V17.312ZM97.8402 23H101.536V17.96H104.344C108.112 17.96 111.136 15.944 111.136 12.056C111.136 8.576 108.712 6.2 104.704 6.2H97.8402V23ZM101.536 14.672V9.536H104.392C106.24 9.536 107.392 10.424 107.392 12.08C107.392 13.568 106.312 14.672 104.464 14.672H101.536ZM113.871 23H126.663V19.712H117.543V16.184H125.463V12.896H117.543V9.488H126.543V6.2H113.871V23ZM129.95 23H142.742V19.712H133.622V16.184H141.542V12.896H133.622V9.488H142.622V6.2H129.95V23ZM146.028 23H149.724V17.864L151.668 15.848L156.876 23H161.316L154.164 13.328L161.004 6.2H156.54L149.724 13.544V6.2H146.028V23ZM169.301 23.24C172.925 23.24 175.469 21.368 175.469 18.032C175.469 15.056 173.549 13.832 170.141 12.944C167.237 12.2 166.517 11.84 166.517 10.736C166.517 9.872 167.261 9.224 168.677 9.224C170.093 9.224 171.557 9.848 173.045 10.88L174.965 8.096C173.261 6.728 171.173 5.96 168.725 5.96C165.293 5.96 162.845 7.976 162.845 11.024C162.845 14.408 165.029 15.344 168.413 16.208C171.221 16.928 171.797 17.408 171.797 18.344C171.797 19.376 170.885 19.976 169.373 19.976C167.453 19.976 165.869 19.184 164.357 17.936L162.173 20.552C164.189 22.352 166.757 23.24 169.301 23.24Z" fill="#161616"/>
<path d="M209.332 23.24C212.956 23.24 215.5 21.368 215.5 18.032C215.5 15.056 213.58 13.832 210.172 12.944C207.268 12.2 206.548 11.84 206.548 10.736C206.548 9.872 207.292 9.224 208.708 9.224C210.124 9.224 211.588 9.848 213.076 10.88L214.996 8.096C213.292 6.728 211.204 5.96 208.756 5.96C205.324 5.96 202.876 7.976 202.876 11.024C202.876 14.408 205.06 15.344 208.444 16.208C211.252 16.928 211.828 17.408 211.828 18.344C211.828 19.376 210.916 19.976 209.404 19.976C207.484 19.976 205.9 19.184 204.388 17.936L202.204 20.552C204.22 22.352 206.788 23.24 209.332 23.24ZM218.707 23H222.355V12.32L230.491 23H233.635V6.2H229.987V16.544L222.115 6.2H218.707V23ZM237.668 23H250.46V19.712H241.34V16.184H249.26V12.896H241.34V9.488H250.34V6.2H237.668V23ZM252.306 23H256.074L257.61 19.232H264.714L266.25 23H270.114L262.914 6.08H259.506L252.306 23ZM258.93 15.968L261.162 10.52L263.394 15.968H258.93ZM272.707 23H276.403V17.864L278.347 15.848L283.555 23H287.995L280.843 13.328L287.683 6.2H283.219L276.403 13.544V6.2H272.707V23ZM288.227 17.312H295.619V13.808H288.227V17.312ZM298.84 23H302.536V17.96H305.344C309.112 17.96 312.136 15.944 312.136 12.056C312.136 8.576 309.712 6.2 305.704 6.2H298.84V23ZM302.536 14.672V9.536H305.392C307.24 9.536 308.392 10.424 308.392 12.08C308.392 13.568 307.312 14.672 305.464 14.672H302.536ZM314.871 23H327.663V19.712H318.543V16.184H326.463V12.896H318.543V9.488H327.543V6.2H314.871V23ZM330.95 23H343.742V19.712H334.622V16.184H342.542V12.896H334.622V9.488H343.622V6.2H330.95V23ZM347.028 23H350.724V17.864L352.668 15.848L357.876 23H362.316L355.164 13.328L362.004 6.2H357.54L350.724 13.544V6.2H347.028V23ZM370.301 23.24C373.925 23.24 376.469 21.368 376.469 18.032C376.469 15.056 374.549 13.832 371.141 12.944C368.237 12.2 367.517 11.84 367.517 10.736C367.517 9.872 368.261 9.224 369.677 9.224C371.093 9.224 372.557 9.848 374.045 10.88L375.965 8.096C374.261 6.728 372.173 5.96 369.725 5.96C366.293 5.96 363.845 7.976 363.845 11.024C363.845 14.408 366.029 15.344 369.413 16.208C372.221 16.928 372.797 17.408 372.797 18.344C372.797 19.376 371.885 19.976 370.373 19.976C368.453 19.976 366.869 19.184 365.357 17.936L363.173 20.552C365.189 22.352 367.757 23.24 370.301 23.24Z" fill="#161616"/>
<path d="M410.332 23.24C413.956 23.24 416.5 21.368 416.5 18.032C416.5 15.056 414.58 13.832 411.172 12.944C408.268 12.2 407.548 11.84 407.548 10.736C407.548 9.872 408.292 9.224 409.708 9.224C411.124 9.224 412.588 9.848 414.076 10.88L415.996 8.096C414.292 6.728 412.204 5.96 409.756 5.96C406.324 5.96 403.876 7.976 403.876 11.024C403.876 14.408 406.06 15.344 409.444 16.208C412.252 16.928 412.828 17.408 412.828 18.344C412.828 19.376 411.916 19.976 410.404 19.976C408.484 19.976 406.9 19.184 405.388 17.936L403.204 20.552C405.22 22.352 407.788 23.24 410.332 23.24ZM419.707 23H423.355V12.32L431.491 23H434.635V6.2H430.987V16.544L423.115 6.2H419.707V23ZM438.668 23H451.46V19.712H442.34V16.184H450.26V12.896H442.34V9.488H451.34V6.2H438.668V23ZM453.306 23H457.074L458.61 19.232H465.714L467.25 23H471.114L463.914 6.08H460.506L453.306 23ZM459.93 15.968L462.162 10.52L464.394 15.968H459.93ZM473.707 23H477.403V17.864L479.347 15.848L484.555 23H488.995L481.843 13.328L488.683 6.2H484.219L477.403 13.544V6.2H473.707V23ZM489.227 17.312H496.619V13.808H489.227V17.312ZM499.84 23H503.536V17.96H506.344C510.112 17.96 513.136 15.944 513.136 12.056C513.136 8.576 510.712 6.2 506.704 6.2H499.84V23ZM503.536 14.672V9.536H506.392C508.24 9.536 509.392 10.424 509.392 12.08C509.392 13.568 508.312 14.672 506.464 14.672H503.536ZM515.871 23H528.663V19.712H519.543V16.184H527.463V12.896H519.543V9.488H528.543V6.2H515.871V23ZM531.95 23H544.742V19.712H535.622V16.184H543.542V12.896H535.622V9.488H544.622V6.2H531.95V23ZM548.028 23H551.724V17.864L553.668 15.848L558.876 23H563.316L556.164 13.328L563.004 6.2H558.54L551.724 13.544V6.2H548.028V23ZM571.301 23.24C574.925 23.24 577.469 21.368 577.469 18.032C577.469 15.056 575.549 13.832 572.141 12.944C569.237 12.2 568.517 11.84 568.517 10.736C568.517 9.872 569.261 9.224 570.677 9.224C572.093 9.224 573.557 9.848 575.045 10.88L576.965 8.096C575.261 6.728 573.173 5.96 570.725 5.96C567.293 5.96 564.845 7.976 564.845 11.024C564.845 14.408 567.029 15.344 570.413 16.208C573.221 16.928 573.797 17.408 573.797 18.344C573.797 19.376 572.885 19.976 571.373 19.976C569.453 19.976 567.869 19.184 566.357 17.936L564.173 20.552C566.189 22.352 568.757 23.24 571.301 23.24Z" fill="#161616"/>
<path d="M611.332 23.24C614.956 23.24 617.5 21.368 617.5 18.032C617.5 15.056 615.58 13.832 612.172 12.944C609.268 12.2 608.548 11.84 608.548 10.736C608.548 9.872 609.292 9.224 610.708 9.224C612.124 9.224 613.588 9.848 615.076 10.88L616.996 8.096C615.292 6.728 613.204 5.96 610.756 5.96C607.324 5.96 604.876 7.976 604.876 11.024C604.876 14.408 607.06 15.344 610.444 16.208C613.252 16.928 613.828 17.408 613.828 18.344C613.828 19.376 612.916 19.976 611.404 19.976C609.484 19.976 607.9 19.184 606.388 17.936L604.204 20.552C606.22 22.352 608.788 23.24 611.332 23.24ZM620.707 23H624.355V12.32L632.491 23H635.635V6.2H631.987V16.544L624.115 6.2H620.707V23ZM639.668 23H652.46V19.712H643.34V16.184H651.26V12.896H643.34V9.488H652.34V6.2H639.668V23ZM654.306 23H658.074L659.61 19.232H666.714L668.25 23H672.114L664.914 6.08H661.506L654.306 23ZM660.93 15.968L663.162 10.52L665.394 15.968H660.93ZM674.707 23H678.403V17.864L680.347 15.848L685.555 23H689.995L682.843 13.328L689.683 6.2H685.219L678.403 13.544V6.2H674.707V23ZM690.227 17.312H697.619V13.808H690.227V17.312ZM700.84 23H704.536V17.96H707.344C711.112 17.96 714.136 15.944 714.136 12.056C714.136 8.576 711.712 6.2 707.704 6.2H700.84V23ZM704.536 14.672V9.536H707.392C709.24 9.536 710.392 10.424 710.392 12.08C710.392 13.568 709.312 14.672 707.464 14.672H704.536ZM716.871 23H729.663V19.712H720.543V16.184H728.463V12.896H720.543V9.488H729.543V6.2H716.871V23ZM732.95 23H745.742V19.712H736.622V16.184H744.542V12.896H736.622V9.488H745.622V6.2H732.95V23ZM749.028 23H752.724V17.864L754.668 15.848L759.876 23H764.316L757.164 13.328L764.004 6.2H759.54L752.724 13.544V6.2H749.028V23ZM772.301 23.24C775.925 23.24 778.469 21.368 778.469 18.032C778.469 15.056 776.549 13.832 773.141 12.944C770.237 12.2 769.517 11.84 769.517 10.736C769.517 9.872 770.261 9.224 771.677 9.224C773.093 9.224 774.557 9.848 776.045 10.88L777.965 8.096C776.261 6.728 774.173 5.96 771.725 5.96C768.293 5.96 765.845 7.976 765.845 11.024C765.845 14.408 768.029 15.344 771.413 16.208C774.221 16.928 774.797 17.408 774.797 18.344C774.797 19.376 773.885 19.976 772.373 19.976C770.453 19.976 768.869 19.184 767.357 17.936L765.173 20.552C767.189 22.352 769.757 23.24 772.301 23.24Z" fill="#161616"/>
<path d="M812.332 23.24C815.956 23.24 818.5 21.368 818.5 18.032C818.5 15.056 816.58 13.832 813.172 12.944C810.268 12.2 809.548 11.84 809.548 10.736C809.548 9.872 810.292 9.224 811.708 9.224C813.124 9.224 814.588 9.848 816.076 10.88L817.996 8.096C816.292 6.728 814.204 5.96 811.756 5.96C808.324 5.96 805.876 7.976 805.876 11.024C805.876 14.408 808.06 15.344 811.444 16.208C814.252 16.928 814.828 17.408 814.828 18.344C814.828 19.376 813.916 19.976 812.404 19.976C810.484 19.976 808.9 19.184 807.388 17.936L805.204 20.552C807.22 22.352 809.788 23.24 812.332 23.24ZM821.707 23H825.355V12.32L833.491 23H836.635V6.2H832.987V16.544L825.115 6.2H821.707V23ZM840.668 23H853.46V19.712H844.34V16.184H852.26V12.896H844.34V9.488H853.34V6.2H840.668V23ZM855.306 23H859.074L860.61 19.232H867.714L869.25 23H873.114L865.914 6.08H862.506L855.306 23ZM861.93 15.968L864.162 10.52L866.394 15.968H861.93ZM875.707 23H879.403V17.864L881.347 15.848L886.555 23H890.995L883.843 13.328L890.683 6.2H886.219L879.403 13.544V6.2H875.707V23ZM891.227 17.312H898.619V13.808H891.227V17.312ZM901.84 23H905.536V17.96H908.344C912.112 17.96 915.136 15.944 915.136 12.056C915.136 8.576 912.712 6.2 908.704 6.2H901.84V23ZM905.536 14.672V9.536H908.392C910.24 9.536 911.392 10.424 911.392 12.08C911.392 13.568 910.312 14.672 908.464 14.672H905.536ZM917.871 23H930.663V19.712H921.543V16.184H929.463V12.896H921.543V9.488H930.543V6.2H917.871V23ZM933.95 23H946.742V19.712H937.622V16.184H945.542V12.896H937.622V9.488H946.622V6.2H933.95V23ZM950.028 23H953.724V17.864L955.668 15.848L960.876 23H965.316L958.164 13.328L965.004 6.2H960.54L953.724 13.544V6.2H950.028V23ZM973.301 23.24C976.925 23.24 979.469 21.368 979.469 18.032C979.469 15.056 977.549 13.832 974.141 12.944C971.237 12.2 970.517 11.84 970.517 10.736C970.517 9.872 971.261 9.224 972.677 9.224C974.093 9.224 975.557 9.848 977.045 10.88L978.965 8.096C977.261 6.728 975.173 5.96 972.725 5.96C969.293 5.96 966.845 7.976 966.845 11.024C966.845 14.408 969.029 15.344 972.413 16.208C975.221 16.928 975.797 17.408 975.797 18.344C975.797 19.376 974.885 19.976 973.373 19.976C971.453 19.976 969.869 19.184 968.357 17.936L966.173 20.552C968.189 22.352 970.757 23.24 973.301 23.24Z" fill="#161616"/>
<path d="M1013.33 23.24C1016.96 23.24 1019.5 21.368 1019.5 18.032C1019.5 15.056 1017.58 13.832 1014.17 12.944C1011.27 12.2 1010.55 11.84 1010.55 10.736C1010.55 9.872 1011.29 9.224 1012.71 9.224C1014.12 9.224 1015.59 9.848 1017.08 10.88L1019 8.096C1017.29 6.728 1015.2 5.96 1012.76 5.96C1009.32 5.96 1006.88 7.976 1006.88 11.024C1006.88 14.408 1009.06 15.344 1012.44 16.208C1015.25 16.928 1015.83 17.408 1015.83 18.344C1015.83 19.376 1014.92 19.976 1013.4 19.976C1011.48 19.976 1009.9 19.184 1008.39 17.936L1006.2 20.552C1008.22 22.352 1010.79 23.24 1013.33 23.24ZM1022.71 23H1026.36V12.32L1034.49 23H1037.64V6.2H1033.99V16.544L1026.12 6.2H1022.71V23ZM1041.67 23H1054.46V19.712H1045.34V16.184H1053.26V12.896H1045.34V9.488H1054.34V6.2H1041.67V23ZM1056.31 23H1060.07L1061.61 19.232H1068.71L1070.25 23H1074.11L1066.91 6.08H1063.51L1056.31 23ZM1062.93 15.968L1065.16 10.52L1067.39 15.968H1062.93ZM1076.71 23H1080.4V17.864L1082.35 15.848L1087.56 23H1092L1084.84 13.328L1091.68 6.2H1087.22L1080.4 13.544V6.2H1076.71V23ZM1092.23 17.312H1099.62V13.808H1092.23V17.312ZM1102.84 23H1106.54V17.96H1109.34C1113.11 17.96 1116.14 15.944 1116.14 12.056C1116.14 8.576 1113.71 6.2 1109.7 6.2H1102.84V23ZM1106.54 14.672V9.536H1109.39C1111.24 9.536 1112.39 10.424 1112.39 12.08C1112.39 13.568 1111.31 14.672 1109.46 14.672H1106.54ZM1118.87 23H1131.66V19.712H1122.54V16.184H1130.46V12.896H1122.54V9.488H1131.54V6.2H1118.87V23ZM1134.95 23H1147.74V19.712H1138.62V16.184H1146.54V12.896H1138.62V9.488H1147.62V6.2H1134.95V23ZM1151.03 23H1154.72V17.864L1156.67 15.848L1161.88 23H1166.32L1159.16 13.328L1166 6.2H1161.54L1154.72 13.544V6.2H1151.03V23ZM1174.3 23.24C1177.92 23.24 1180.47 21.368 1180.47 18.032C1180.47 15.056 1178.55 13.832 1175.14 12.944C1172.24 12.2 1171.52 11.84 1171.52 10.736C1171.52 9.872 1172.26 9.224 1173.68 9.224C1175.09 9.224 1176.56 9.848 1178.04 10.88L1179.96 8.096C1178.26 6.728 1176.17 5.96 1173.72 5.96C1170.29 5.96 1167.84 7.976 1167.84 11.024C1167.84 14.408 1170.03 15.344 1173.41 16.208C1176.22 16.928 1176.8 17.408 1176.8 18.344C1176.8 19.376 1175.88 19.976 1174.37 19.976C1172.45 19.976 1170.87 19.184 1169.36 17.936L1167.17 20.552C1169.19 22.352 1171.76 23.24 1174.3 23.24Z" fill="#161616"/>
</svg>
