<svg width="1901" height="49" viewBox="0 0 1901 49" fill="none" xmlns="http://www.w3.org/2000/svg">
<path d="M1.98438 23.6406C1.98438 21.901 2.3125 20.2812 2.96875 18.7812C3.625 17.2708 4.57292 15.9635 5.8125 14.8594C7.0625 13.7448 8.58333 12.8698 10.375 12.2344C12.1771 11.599 14.2135 11.2812 16.4844 11.2812C18.474 11.2812 20.2969 11.4844 21.9531 11.8906C23.6198 12.2865 25.1667 12.8958 26.5938 13.7188L24.3125 17.4688C23.8854 17.1875 23.3906 16.9375 22.8281 16.7188C22.276 16.5 21.6823 16.3177 21.0469 16.1719C20.4219 16.0156 19.7708 15.8958 19.0938 15.8125C18.4271 15.7292 17.7656 15.6875 17.1094 15.6875C15.526 15.6875 14.1146 15.8854 12.875 16.2812C11.6354 16.6667 10.5885 17.2135 9.73438 17.9219C8.89062 18.6198 8.24479 19.4583 7.79688 20.4375C7.35938 21.4062 7.14062 22.474 7.14062 23.6406C7.14062 24.849 7.36979 25.9583 7.82812 26.9688C8.28646 27.9792 8.94792 28.8542 9.8125 29.5938C10.6875 30.3229 11.75 30.8958 13 31.3125C14.2604 31.7188 15.6823 31.9219 17.2656 31.9219C17.9844 31.9219 18.6979 31.8698 19.4062 31.7656C20.1146 31.6615 20.7969 31.5208 21.4531 31.3438C22.1198 31.1562 22.7604 30.9375 23.375 30.6875C23.9896 30.4271 24.5625 30.1458 25.0938 29.8438L27.375 33.5938C26.0417 34.4479 24.5 35.1198 22.75 35.6094C21 36.0885 19.1406 36.3281 17.1719 36.3281C14.6615 36.3281 12.4583 36.0052 10.5625 35.3594C8.66667 34.7031 7.08333 33.8073 5.8125 32.6719C4.54167 31.526 3.58333 30.1823 2.9375 28.6406C2.30208 27.0885 1.98438 25.4219 1.98438 23.6406ZM29.9662 23.7188C29.9662 21.875 30.3048 20.1875 30.9819 18.6562C31.659 17.125 32.6069 15.8125 33.8256 14.7188C35.0548 13.6146 36.5235 12.7604 38.2319 12.1562C39.9506 11.5521 41.8517 11.25 43.935 11.25C46.0079 11.25 47.9037 11.5521 49.6225 12.1562C51.3412 12.7604 52.81 13.6146 54.0287 14.7188C55.2579 15.8125 56.211 17.125 56.8881 18.6562C57.5652 20.1875 57.9037 21.875 57.9037 23.7188C57.9037 25.5729 57.5652 27.276 56.8881 28.8281C56.211 30.3698 55.2579 31.6979 54.0287 32.8125C52.81 33.9271 51.3412 34.7969 49.6225 35.4219C47.9037 36.0365 46.0079 36.3438 43.935 36.3438C41.8517 36.3438 39.9506 36.0365 38.2319 35.4219C36.5235 34.7969 35.0548 33.9271 33.8256 32.8125C32.6069 31.6979 31.659 30.3698 30.9819 28.8281C30.3048 27.276 29.9662 25.5729 29.9662 23.7188ZM34.9194 23.7188C34.9194 24.9792 35.1433 26.1146 35.5912 27.125C36.0496 28.1354 36.6798 29 37.4819 29.7188C38.2944 30.4271 39.2475 30.974 40.3412 31.3594C41.4454 31.7448 42.6433 31.9375 43.935 31.9375C45.2267 31.9375 46.4194 31.7448 47.5131 31.3594C48.6173 30.974 49.5704 30.4271 50.3725 29.7188C51.1746 29 51.8048 28.1354 52.2631 27.125C52.7215 26.1146 52.9506 24.9792 52.9506 23.7188C52.9506 22.4583 52.7215 21.3281 52.2631 20.3281C51.8048 19.3281 51.1746 18.4844 50.3725 17.7969C49.5704 17.099 48.6173 16.5677 47.5131 16.2031C46.4194 15.8385 45.2267 15.6562 43.935 15.6562C42.6433 15.6562 41.4454 15.8385 40.3412 16.2031C39.2475 16.5677 38.2944 17.099 37.4819 17.7969C36.6798 18.4844 36.0496 19.3281 35.5912 20.3281C35.1433 21.3281 34.9194 22.4583 34.9194 23.7188ZM61.9794 11.5781H66.9325L75.8075 20.4844L84.6825 11.5781H89.6356V36H84.6825V18.4375L75.8075 26.9844L66.9325 18.4375V36H61.9794V11.5781ZM95.1488 11.5781H115.946V15.9219H100.102V20.7969H114.133V24.875H100.102V31.6719H116.274V36H95.1488V11.5781ZM129.519 11.5781H151.363V15.9219H134.472V22.3125H148.816V26.3906H134.472V36H129.519V11.5781ZM154.704 11.5781H159.657V31.6562H173.86V36H154.704V11.5781ZM177.232 11.5781H198.029V15.9219H182.186V20.7969H196.217V24.875H182.186V31.6719H198.357V36H177.232V11.5781ZM209.355 23.5938L199.964 11.5781H206.027L212.511 19.9844L219.027 11.5781H224.996L215.433 23.5469L225.324 36H219.246L212.292 27.2188L205.183 36H199.199L209.355 23.5938ZM233.631 11.5781H239.038L245.663 27.3438L247.194 31.1562L248.397 27.3438L250.834 21.5938L246.444 11.5781H251.538L253.334 16.3438L255.006 11.5781H260.1L255.709 21.5938L258.194 27.4688L259.694 31.1562L260.85 27.4062L267.506 11.5781H272.913L262.131 36H257.225L255.053 31.1562L253.288 26.4531L251.522 31.1562L249.319 36H244.413L233.631 11.5781ZM274.629 11.5781H279.613V36H274.629V11.5781ZM291.861 15.9219H282.845V11.5781H305.829V15.9219H296.814V36H291.861V15.9219ZM309.671 11.5781H314.624V17.9531H329.811V11.5781H334.78V36H329.811V22.1875H314.624V36H309.671V11.5781ZM348.541 11.5781H353.494V25.0312C353.494 26.1354 353.645 27.1198 353.947 27.9844C354.249 28.8385 354.697 29.5625 355.291 30.1562C355.895 30.75 356.64 31.2031 357.525 31.5156C358.41 31.8177 359.442 31.9688 360.619 31.9688C361.785 31.9688 362.811 31.8177 363.697 31.5156C364.593 31.2031 365.337 30.75 365.931 30.1562C366.535 29.5625 366.989 28.8385 367.291 27.9844C367.593 27.1198 367.744 26.1354 367.744 25.0312V11.5781H372.697V25.625C372.697 27.2292 372.426 28.6875 371.884 30C371.343 31.3125 370.556 32.4375 369.525 33.375C368.494 34.3125 367.228 35.0365 365.728 35.5469C364.239 36.0573 362.535 36.3125 360.619 36.3125C358.702 36.3125 356.994 36.0573 355.494 35.5469C354.004 35.0365 352.744 34.3125 351.712 33.375C350.681 32.4375 349.895 31.3125 349.353 30C348.811 28.6875 348.541 27.2292 348.541 25.625V11.5781ZM378.444 28.7344C379.33 29.2344 380.226 29.6875 381.132 30.0938C382.049 30.4896 382.996 30.8281 383.976 31.1094C384.955 31.3802 385.981 31.5885 387.054 31.7344C388.137 31.8802 389.288 31.9531 390.507 31.9531C391.976 31.9531 393.226 31.8594 394.257 31.6719C395.288 31.474 396.127 31.2083 396.772 30.875C397.429 30.5312 397.903 30.125 398.194 29.6562C398.496 29.1875 398.647 28.6771 398.647 28.125C398.647 27.2396 398.278 26.5417 397.538 26.0312C396.799 25.5104 395.658 25.25 394.116 25.25C393.439 25.25 392.726 25.2969 391.976 25.3906C391.226 25.474 390.465 25.5677 389.694 25.6719C388.934 25.776 388.179 25.875 387.429 25.9688C386.689 26.0521 385.991 26.0938 385.335 26.0938C384.241 26.0938 383.189 25.9531 382.179 25.6719C381.179 25.3906 380.288 24.9688 379.507 24.4062C378.736 23.8438 378.121 23.1406 377.663 22.2969C377.205 21.4531 376.976 20.4688 376.976 19.3438C376.976 18.6771 377.064 18.0156 377.241 17.3594C377.429 16.7031 377.72 16.0781 378.116 15.4844C378.522 14.8802 379.043 14.3229 379.679 13.8125C380.314 13.2917 381.08 12.8438 381.976 12.4688C382.882 12.0938 383.924 11.8021 385.101 11.5938C386.288 11.375 387.637 11.2656 389.147 11.2656C390.241 11.2656 391.34 11.3281 392.444 11.4531C393.549 11.5677 394.621 11.7344 395.663 11.9531C396.715 12.1719 397.726 12.4375 398.694 12.75C399.663 13.0521 400.564 13.3906 401.397 13.7656L399.226 17.7656C398.538 17.4635 397.799 17.1875 397.007 16.9375C396.215 16.6771 395.387 16.4531 394.522 16.2656C393.658 16.0781 392.762 15.9323 391.835 15.8281C390.918 15.7135 389.981 15.6562 389.022 15.6562C387.658 15.6562 386.533 15.7552 385.647 15.9531C384.772 16.151 384.075 16.4062 383.554 16.7188C383.033 17.0208 382.668 17.3646 382.46 17.75C382.262 18.125 382.163 18.5 382.163 18.875C382.163 19.6042 382.491 20.2031 383.147 20.6719C383.804 21.1302 384.804 21.3594 386.147 21.3594C386.689 21.3594 387.309 21.3229 388.007 21.25C388.715 21.1667 389.455 21.0781 390.226 20.9844C391.007 20.8906 391.799 20.8073 392.601 20.7344C393.413 20.651 394.2 20.6094 394.96 20.6094C396.397 20.6094 397.668 20.7708 398.772 21.0938C399.887 21.4167 400.819 21.8802 401.569 22.4844C402.319 23.0781 402.887 23.8021 403.272 24.6562C403.658 25.5 403.851 26.4479 403.851 27.5C403.851 28.9062 403.522 30.1615 402.866 31.2656C402.22 32.3594 401.293 33.2865 400.085 34.0469C398.887 34.7969 397.439 35.3698 395.741 35.7656C394.043 36.151 392.153 36.3438 390.069 36.3438C388.694 36.3438 387.351 36.2552 386.038 36.0781C384.726 35.9115 383.465 35.6719 382.257 35.3594C381.059 35.0365 379.913 34.6562 378.819 34.2188C377.736 33.7708 376.731 33.2812 375.804 32.75L378.444 28.7344Z" fill="white"/>
<path fill-rule="evenodd" clip-rule="evenodd" d="M466 12.6172L453.407 0L442 11.4288L430.593 8.37721e-06L418 12.6172L429.407 24.0459L418.092 35.3829L430.685 48.0001L442 36.6631L453.316 48.0001L465.909 35.3829L454.593 24.0459L466 12.6172Z" fill="black"/>
<path d="M479.984 23.6406C479.984 21.901 480.312 20.2812 480.969 18.7812C481.625 17.2708 482.573 15.9635 483.812 14.8594C485.062 13.7448 486.583 12.8698 488.375 12.2344C490.177 11.599 492.214 11.2812 494.484 11.2812C496.474 11.2812 498.297 11.4844 499.953 11.8906C501.62 12.2865 503.167 12.8958 504.594 13.7188L502.312 17.4688C501.885 17.1875 501.391 16.9375 500.828 16.7188C500.276 16.5 499.682 16.3177 499.047 16.1719C498.422 16.0156 497.771 15.8958 497.094 15.8125C496.427 15.7292 495.766 15.6875 495.109 15.6875C493.526 15.6875 492.115 15.8854 490.875 16.2812C489.635 16.6667 488.589 17.2135 487.734 17.9219C486.891 18.6198 486.245 19.4583 485.797 20.4375C485.359 21.4062 485.141 22.474 485.141 23.6406C485.141 24.849 485.37 25.9583 485.828 26.9688C486.286 27.9792 486.948 28.8542 487.812 29.5938C488.688 30.3229 489.75 30.8958 491 31.3125C492.26 31.7188 493.682 31.9219 495.266 31.9219C495.984 31.9219 496.698 31.8698 497.406 31.7656C498.115 31.6615 498.797 31.5208 499.453 31.3438C500.12 31.1562 500.76 30.9375 501.375 30.6875C501.99 30.4271 502.562 30.1458 503.094 29.8438L505.375 33.5938C504.042 34.4479 502.5 35.1198 500.75 35.6094C499 36.0885 497.141 36.3281 495.172 36.3281C492.661 36.3281 490.458 36.0052 488.562 35.3594C486.667 34.7031 485.083 33.8073 483.812 32.6719C482.542 31.526 481.583 30.1823 480.938 28.6406C480.302 27.0885 479.984 25.4219 479.984 23.6406ZM507.966 23.7188C507.966 21.875 508.305 20.1875 508.982 18.6562C509.659 17.125 510.607 15.8125 511.826 14.7188C513.055 13.6146 514.524 12.7604 516.232 12.1562C517.951 11.5521 519.852 11.25 521.935 11.25C524.008 11.25 525.904 11.5521 527.622 12.1562C529.341 12.7604 530.81 13.6146 532.029 14.7188C533.258 15.8125 534.211 17.125 534.888 18.6562C535.565 20.1875 535.904 21.875 535.904 23.7188C535.904 25.5729 535.565 27.276 534.888 28.8281C534.211 30.3698 533.258 31.6979 532.029 32.8125C530.81 33.9271 529.341 34.7969 527.622 35.4219C525.904 36.0365 524.008 36.3438 521.935 36.3438C519.852 36.3438 517.951 36.0365 516.232 35.4219C514.524 34.7969 513.055 33.9271 511.826 32.8125C510.607 31.6979 509.659 30.3698 508.982 28.8281C508.305 27.276 507.966 25.5729 507.966 23.7188ZM512.919 23.7188C512.919 24.9792 513.143 26.1146 513.591 27.125C514.05 28.1354 514.68 29 515.482 29.7188C516.294 30.4271 517.247 30.974 518.341 31.3594C519.445 31.7448 520.643 31.9375 521.935 31.9375C523.227 31.9375 524.419 31.7448 525.513 31.3594C526.617 30.974 527.57 30.4271 528.372 29.7188C529.175 29 529.805 28.1354 530.263 27.125C530.721 26.1146 530.951 24.9792 530.951 23.7188C530.951 22.4583 530.721 21.3281 530.263 20.3281C529.805 19.3281 529.175 18.4844 528.372 17.7969C527.57 17.099 526.617 16.5677 525.513 16.2031C524.419 15.8385 523.227 15.6562 521.935 15.6562C520.643 15.6562 519.445 15.8385 518.341 16.2031C517.247 16.5677 516.294 17.099 515.482 17.7969C514.68 18.4844 514.05 19.3281 513.591 20.3281C513.143 21.3281 512.919 22.4583 512.919 23.7188ZM539.979 11.5781H544.932L553.807 20.4844L562.682 11.5781H567.636V36H562.682V18.4375L553.807 26.9844L544.932 18.4375V36H539.979V11.5781ZM573.149 11.5781H593.946V15.9219H578.102V20.7969H592.133V24.875H578.102V31.6719H594.274V36H573.149V11.5781ZM607.519 11.5781H629.363V15.9219H612.472V22.3125H626.816V26.3906H612.472V36H607.519V11.5781ZM632.704 11.5781H637.657V31.6562H651.86V36H632.704V11.5781ZM655.232 11.5781H676.029V15.9219H660.186V20.7969H674.217V24.875H660.186V31.6719H676.357V36H655.232V11.5781ZM687.355 23.5938L677.964 11.5781H684.027L690.511 19.9844L697.027 11.5781H702.996L693.433 23.5469L703.324 36H697.246L690.292 27.2188L683.183 36H677.199L687.355 23.5938ZM711.631 11.5781H717.038L723.663 27.3438L725.194 31.1562L726.397 27.3438L728.834 21.5938L724.444 11.5781H729.538L731.334 16.3438L733.006 11.5781H738.1L733.709 21.5938L736.194 27.4688L737.694 31.1562L738.85 27.4062L745.506 11.5781H750.913L740.131 36H735.225L733.053 31.1562L731.288 26.4531L729.522 31.1562L727.319 36H722.413L711.631 11.5781ZM752.629 11.5781H757.613V36H752.629V11.5781ZM769.861 15.9219H760.845V11.5781H783.829V15.9219H774.814V36H769.861V15.9219ZM787.671 11.5781H792.624V17.9531H807.811V11.5781H812.78V36H807.811V22.1875H792.624V36H787.671V11.5781ZM826.541 11.5781H831.494V25.0312C831.494 26.1354 831.645 27.1198 831.947 27.9844C832.249 28.8385 832.697 29.5625 833.291 30.1562C833.895 30.75 834.64 31.2031 835.525 31.5156C836.41 31.8177 837.442 31.9688 838.619 31.9688C839.785 31.9688 840.811 31.8177 841.697 31.5156C842.593 31.2031 843.337 30.75 843.931 30.1562C844.535 29.5625 844.989 28.8385 845.291 27.9844C845.593 27.1198 845.744 26.1354 845.744 25.0312V11.5781H850.697V25.625C850.697 27.2292 850.426 28.6875 849.884 30C849.343 31.3125 848.556 32.4375 847.525 33.375C846.494 34.3125 845.228 35.0365 843.728 35.5469C842.239 36.0573 840.535 36.3125 838.619 36.3125C836.702 36.3125 834.994 36.0573 833.494 35.5469C832.004 35.0365 830.744 34.3125 829.712 33.375C828.681 32.4375 827.895 31.3125 827.353 30C826.811 28.6875 826.541 27.2292 826.541 25.625V11.5781ZM856.444 28.7344C857.33 29.2344 858.226 29.6875 859.132 30.0938C860.049 30.4896 860.996 30.8281 861.976 31.1094C862.955 31.3802 863.981 31.5885 865.054 31.7344C866.137 31.8802 867.288 31.9531 868.507 31.9531C869.976 31.9531 871.226 31.8594 872.257 31.6719C873.288 31.474 874.127 31.2083 874.772 30.875C875.429 30.5312 875.903 30.125 876.194 29.6562C876.496 29.1875 876.647 28.6771 876.647 28.125C876.647 27.2396 876.278 26.5417 875.538 26.0312C874.799 25.5104 873.658 25.25 872.116 25.25C871.439 25.25 870.726 25.2969 869.976 25.3906C869.226 25.474 868.465 25.5677 867.694 25.6719C866.934 25.776 866.179 25.875 865.429 25.9688C864.689 26.0521 863.991 26.0938 863.335 26.0938C862.241 26.0938 861.189 25.9531 860.179 25.6719C859.179 25.3906 858.288 24.9688 857.507 24.4062C856.736 23.8438 856.121 23.1406 855.663 22.2969C855.205 21.4531 854.976 20.4688 854.976 19.3438C854.976 18.6771 855.064 18.0156 855.241 17.3594C855.429 16.7031 855.72 16.0781 856.116 15.4844C856.522 14.8802 857.043 14.3229 857.679 13.8125C858.314 13.2917 859.08 12.8438 859.976 12.4688C860.882 12.0938 861.924 11.8021 863.101 11.5938C864.288 11.375 865.637 11.2656 867.147 11.2656C868.241 11.2656 869.34 11.3281 870.444 11.4531C871.549 11.5677 872.621 11.7344 873.663 11.9531C874.715 12.1719 875.726 12.4375 876.694 12.75C877.663 13.0521 878.564 13.3906 879.397 13.7656L877.226 17.7656C876.538 17.4635 875.799 17.1875 875.007 16.9375C874.215 16.6771 873.387 16.4531 872.522 16.2656C871.658 16.0781 870.762 15.9323 869.835 15.8281C868.918 15.7135 867.981 15.6562 867.022 15.6562C865.658 15.6562 864.533 15.7552 863.647 15.9531C862.772 16.151 862.075 16.4062 861.554 16.7188C861.033 17.0208 860.668 17.3646 860.46 17.75C860.262 18.125 860.163 18.5 860.163 18.875C860.163 19.6042 860.491 20.2031 861.147 20.6719C861.804 21.1302 862.804 21.3594 864.147 21.3594C864.689 21.3594 865.309 21.3229 866.007 21.25C866.715 21.1667 867.455 21.0781 868.226 20.9844C869.007 20.8906 869.799 20.8073 870.601 20.7344C871.413 20.651 872.2 20.6094 872.96 20.6094C874.397 20.6094 875.668 20.7708 876.772 21.0938C877.887 21.4167 878.819 21.8802 879.569 22.4844C880.319 23.0781 880.887 23.8021 881.272 24.6562C881.658 25.5 881.851 26.4479 881.851 27.5C881.851 28.9062 881.522 30.1615 880.866 31.2656C880.22 32.3594 879.293 33.2865 878.085 34.0469C876.887 34.7969 875.439 35.3698 873.741 35.7656C872.043 36.151 870.153 36.3438 868.069 36.3438C866.694 36.3438 865.351 36.2552 864.038 36.0781C862.726 35.9115 861.465 35.6719 860.257 35.3594C859.059 35.0365 857.913 34.6562 856.819 34.2188C855.736 33.7708 854.731 33.2812 853.804 32.75L856.444 28.7344Z" fill="white"/>
<circle cx="920" cy="24" r="24" fill="black"/>
<path d="M957.984 23.6406C957.984 21.901 958.312 20.2812 958.969 18.7812C959.625 17.2708 960.573 15.9635 961.812 14.8594C963.062 13.7448 964.583 12.8698 966.375 12.2344C968.177 11.599 970.214 11.2812 972.484 11.2812C974.474 11.2812 976.297 11.4844 977.953 11.8906C979.62 12.2865 981.167 12.8958 982.594 13.7188L980.312 17.4688C979.885 17.1875 979.391 16.9375 978.828 16.7188C978.276 16.5 977.682 16.3177 977.047 16.1719C976.422 16.0156 975.771 15.8958 975.094 15.8125C974.427 15.7292 973.766 15.6875 973.109 15.6875C971.526 15.6875 970.115 15.8854 968.875 16.2812C967.635 16.6667 966.589 17.2135 965.734 17.9219C964.891 18.6198 964.245 19.4583 963.797 20.4375C963.359 21.4062 963.141 22.474 963.141 23.6406C963.141 24.849 963.37 25.9583 963.828 26.9688C964.286 27.9792 964.948 28.8542 965.812 29.5938C966.688 30.3229 967.75 30.8958 969 31.3125C970.26 31.7188 971.682 31.9219 973.266 31.9219C973.984 31.9219 974.698 31.8698 975.406 31.7656C976.115 31.6615 976.797 31.5208 977.453 31.3438C978.12 31.1562 978.76 30.9375 979.375 30.6875C979.99 30.4271 980.562 30.1458 981.094 29.8438L983.375 33.5938C982.042 34.4479 980.5 35.1198 978.75 35.6094C977 36.0885 975.141 36.3281 973.172 36.3281C970.661 36.3281 968.458 36.0052 966.562 35.3594C964.667 34.7031 963.083 33.8073 961.812 32.6719C960.542 31.526 959.583 30.1823 958.938 28.6406C958.302 27.0885 957.984 25.4219 957.984 23.6406ZM985.966 23.7188C985.966 21.875 986.305 20.1875 986.982 18.6562C987.659 17.125 988.607 15.8125 989.826 14.7188C991.055 13.6146 992.524 12.7604 994.232 12.1562C995.951 11.5521 997.852 11.25 999.935 11.25C1002.01 11.25 1003.9 11.5521 1005.62 12.1562C1007.34 12.7604 1008.81 13.6146 1010.03 14.7188C1011.26 15.8125 1012.21 17.125 1012.89 18.6562C1013.57 20.1875 1013.9 21.875 1013.9 23.7188C1013.9 25.5729 1013.57 27.276 1012.89 28.8281C1012.21 30.3698 1011.26 31.6979 1010.03 32.8125C1008.81 33.9271 1007.34 34.7969 1005.62 35.4219C1003.9 36.0365 1002.01 36.3438 999.935 36.3438C997.852 36.3438 995.951 36.0365 994.232 35.4219C992.524 34.7969 991.055 33.9271 989.826 32.8125C988.607 31.6979 987.659 30.3698 986.982 28.8281C986.305 27.276 985.966 25.5729 985.966 23.7188ZM990.919 23.7188C990.919 24.9792 991.143 26.1146 991.591 27.125C992.05 28.1354 992.68 29 993.482 29.7188C994.294 30.4271 995.247 30.974 996.341 31.3594C997.445 31.7448 998.643 31.9375 999.935 31.9375C1001.23 31.9375 1002.42 31.7448 1003.51 31.3594C1004.62 30.974 1005.57 30.4271 1006.37 29.7188C1007.17 29 1007.8 28.1354 1008.26 27.125C1008.72 26.1146 1008.95 24.9792 1008.95 23.7188C1008.95 22.4583 1008.72 21.3281 1008.26 20.3281C1007.8 19.3281 1007.17 18.4844 1006.37 17.7969C1005.57 17.099 1004.62 16.5677 1003.51 16.2031C1002.42 15.8385 1001.23 15.6562 999.935 15.6562C998.643 15.6562 997.445 15.8385 996.341 16.2031C995.247 16.5677 994.294 17.099 993.482 17.7969C992.68 18.4844 992.05 19.3281 991.591 20.3281C991.143 21.3281 990.919 22.4583 990.919 23.7188ZM1017.98 11.5781H1022.93L1031.81 20.4844L1040.68 11.5781H1045.64V36H1040.68V18.4375L1031.81 26.9844L1022.93 18.4375V36H1017.98V11.5781ZM1051.15 11.5781H1071.95V15.9219H1056.1V20.7969H1070.13V24.875H1056.1V31.6719H1072.27V36H1051.15V11.5781ZM1085.52 11.5781H1107.36V15.9219H1090.47V22.3125H1104.82V26.3906H1090.47V36H1085.52V11.5781ZM1110.7 11.5781H1115.66V31.6562H1129.86V36H1110.7V11.5781ZM1133.23 11.5781H1154.03V15.9219H1138.19V20.7969H1152.22V24.875H1138.19V31.6719H1154.36V36H1133.23V11.5781ZM1165.35 23.5938L1155.96 11.5781H1162.03L1168.51 19.9844L1175.03 11.5781H1181L1171.43 23.5469L1181.32 36H1175.25L1168.29 27.2188L1161.18 36H1155.2L1165.35 23.5938ZM1189.63 11.5781H1195.04L1201.66 27.3438L1203.19 31.1562L1204.4 27.3438L1206.83 21.5938L1202.44 11.5781H1207.54L1209.33 16.3438L1211.01 11.5781H1216.1L1211.71 21.5938L1214.19 27.4688L1215.69 31.1562L1216.85 27.4062L1223.51 11.5781H1228.91L1218.13 36H1213.23L1211.05 31.1562L1209.29 26.4531L1207.52 31.1562L1205.32 36H1200.41L1189.63 11.5781ZM1230.63 11.5781H1235.61V36H1230.63V11.5781ZM1247.86 15.9219H1238.85V11.5781H1261.83V15.9219H1252.81V36H1247.86V15.9219ZM1265.67 11.5781H1270.62V17.9531H1285.81V11.5781H1290.78V36H1285.81V22.1875H1270.62V36H1265.67V11.5781ZM1304.54 11.5781H1309.49V25.0312C1309.49 26.1354 1309.64 27.1198 1309.95 27.9844C1310.25 28.8385 1310.7 29.5625 1311.29 30.1562C1311.89 30.75 1312.64 31.2031 1313.52 31.5156C1314.41 31.8177 1315.44 31.9688 1316.62 31.9688C1317.79 31.9688 1318.81 31.8177 1319.7 31.5156C1320.59 31.2031 1321.34 30.75 1321.93 30.1562C1322.54 29.5625 1322.99 28.8385 1323.29 27.9844C1323.59 27.1198 1323.74 26.1354 1323.74 25.0312V11.5781H1328.7V25.625C1328.7 27.2292 1328.43 28.6875 1327.88 30C1327.34 31.3125 1326.56 32.4375 1325.52 33.375C1324.49 34.3125 1323.23 35.0365 1321.73 35.5469C1320.24 36.0573 1318.54 36.3125 1316.62 36.3125C1314.7 36.3125 1312.99 36.0573 1311.49 35.5469C1310 35.0365 1308.74 34.3125 1307.71 33.375C1306.68 32.4375 1305.89 31.3125 1305.35 30C1304.81 28.6875 1304.54 27.2292 1304.54 25.625V11.5781ZM1334.44 28.7344C1335.33 29.2344 1336.23 29.6875 1337.13 30.0938C1338.05 30.4896 1339 30.8281 1339.98 31.1094C1340.95 31.3802 1341.98 31.5885 1343.05 31.7344C1344.14 31.8802 1345.29 31.9531 1346.51 31.9531C1347.98 31.9531 1349.23 31.8594 1350.26 31.6719C1351.29 31.474 1352.13 31.2083 1352.77 30.875C1353.43 30.5312 1353.9 30.125 1354.19 29.6562C1354.5 29.1875 1354.65 28.6771 1354.65 28.125C1354.65 27.2396 1354.28 26.5417 1353.54 26.0312C1352.8 25.5104 1351.66 25.25 1350.12 25.25C1349.44 25.25 1348.73 25.2969 1347.98 25.3906C1347.23 25.474 1346.47 25.5677 1345.69 25.6719C1344.93 25.776 1344.18 25.875 1343.43 25.9688C1342.69 26.0521 1341.99 26.0938 1341.33 26.0938C1340.24 26.0938 1339.19 25.9531 1338.18 25.6719C1337.18 25.3906 1336.29 24.9688 1335.51 24.4062C1334.74 23.8438 1334.12 23.1406 1333.66 22.2969C1333.2 21.4531 1332.98 20.4688 1332.98 19.3438C1332.98 18.6771 1333.06 18.0156 1333.24 17.3594C1333.43 16.7031 1333.72 16.0781 1334.12 15.4844C1334.52 14.8802 1335.04 14.3229 1335.68 13.8125C1336.31 13.2917 1337.08 12.8438 1337.98 12.4688C1338.88 12.0938 1339.92 11.8021 1341.1 11.5938C1342.29 11.375 1343.64 11.2656 1345.15 11.2656C1346.24 11.2656 1347.34 11.3281 1348.44 11.4531C1349.55 11.5677 1350.62 11.7344 1351.66 11.9531C1352.72 12.1719 1353.73 12.4375 1354.69 12.75C1355.66 13.0521 1356.56 13.3906 1357.4 13.7656L1355.23 17.7656C1354.54 17.4635 1353.8 17.1875 1353.01 16.9375C1352.22 16.6771 1351.39 16.4531 1350.52 16.2656C1349.66 16.0781 1348.76 15.9323 1347.83 15.8281C1346.92 15.7135 1345.98 15.6562 1345.02 15.6562C1343.66 15.6562 1342.53 15.7552 1341.65 15.9531C1340.77 16.151 1340.07 16.4062 1339.55 16.7188C1339.03 17.0208 1338.67 17.3646 1338.46 17.75C1338.26 18.125 1338.16 18.5 1338.16 18.875C1338.16 19.6042 1338.49 20.2031 1339.15 20.6719C1339.8 21.1302 1340.8 21.3594 1342.15 21.3594C1342.69 21.3594 1343.31 21.3229 1344.01 21.25C1344.72 21.1667 1345.45 21.0781 1346.23 20.9844C1347.01 20.8906 1347.8 20.8073 1348.6 20.7344C1349.41 20.651 1350.2 20.6094 1350.96 20.6094C1352.4 20.6094 1353.67 20.7708 1354.77 21.0938C1355.89 21.4167 1356.82 21.8802 1357.57 22.4844C1358.32 23.0781 1358.89 23.8021 1359.27 24.6562C1359.66 25.5 1359.85 26.4479 1359.85 27.5C1359.85 28.9062 1359.52 30.1615 1358.87 31.2656C1358.22 32.3594 1357.29 33.2865 1356.08 34.0469C1354.89 34.7969 1353.44 35.3698 1351.74 35.7656C1350.04 36.151 1348.15 36.3438 1346.07 36.3438C1344.69 36.3438 1343.35 36.2552 1342.04 36.0781C1340.73 35.9115 1339.47 35.6719 1338.26 35.3594C1337.06 35.0365 1335.91 34.6562 1334.82 34.2188C1333.74 33.7708 1332.73 33.2812 1331.8 32.75L1334.44 28.7344Z" fill="white"/>
<rect x="1398.01" width="33.9618" height="33.9618" transform="rotate(45 1398.01 0)" fill="black"/>
<path d="M1436.01 23.6406C1436.01 21.901 1436.34 20.2812 1437 18.7812C1437.65 17.2708 1438.6 15.9635 1439.84 14.8594C1441.09 13.7448 1442.61 12.8698 1444.4 12.2344C1446.21 11.599 1448.24 11.2812 1450.51 11.2812C1452.5 11.2812 1454.33 11.4844 1455.98 11.8906C1457.65 12.2865 1459.2 12.8958 1460.62 13.7188L1458.34 17.4688C1457.91 17.1875 1457.42 16.9375 1456.86 16.7188C1456.31 16.5 1455.71 16.3177 1455.08 16.1719C1454.45 16.0156 1453.8 15.8958 1453.12 15.8125C1452.46 15.7292 1451.79 15.6875 1451.14 15.6875C1449.56 15.6875 1448.14 15.8854 1446.9 16.2812C1445.66 16.6667 1444.62 17.2135 1443.76 17.9219C1442.92 18.6198 1442.27 19.4583 1441.83 20.4375C1441.39 21.4062 1441.17 22.474 1441.17 23.6406C1441.17 24.849 1441.4 25.9583 1441.86 26.9688C1442.32 27.9792 1442.98 28.8542 1443.84 29.5938C1444.72 30.3229 1445.78 30.8958 1447.03 31.3125C1448.29 31.7188 1449.71 31.9219 1451.29 31.9219C1452.01 31.9219 1452.73 31.8698 1453.44 31.7656C1454.14 31.6615 1454.83 31.5208 1455.48 31.3438C1456.15 31.1562 1456.79 30.9375 1457.4 30.6875C1458.02 30.4271 1458.59 30.1458 1459.12 29.8438L1461.4 33.5938C1460.07 34.4479 1458.53 35.1198 1456.78 35.6094C1455.03 36.0885 1453.17 36.3281 1451.2 36.3281C1448.69 36.3281 1446.49 36.0052 1444.59 35.3594C1442.7 34.7031 1441.11 33.8073 1439.84 32.6719C1438.57 31.526 1437.61 30.1823 1436.97 28.6406C1436.33 27.0885 1436.01 25.4219 1436.01 23.6406ZM1464 23.7188C1464 21.875 1464.33 20.1875 1465.01 18.6562C1465.69 17.125 1466.64 15.8125 1467.85 14.7188C1469.08 13.6146 1470.55 12.7604 1472.26 12.1562C1473.98 11.5521 1475.88 11.25 1477.96 11.25C1480.04 11.25 1481.93 11.5521 1483.65 12.1562C1485.37 12.7604 1486.84 13.6146 1488.06 14.7188C1489.29 15.8125 1490.24 17.125 1490.92 18.6562C1491.59 20.1875 1491.93 21.875 1491.93 23.7188C1491.93 25.5729 1491.59 27.276 1490.92 28.8281C1490.24 30.3698 1489.29 31.6979 1488.06 32.8125C1486.84 33.9271 1485.37 34.7969 1483.65 35.4219C1481.93 36.0365 1480.04 36.3438 1477.96 36.3438C1475.88 36.3438 1473.98 36.0365 1472.26 35.4219C1470.55 34.7969 1469.08 33.9271 1467.85 32.8125C1466.64 31.6979 1465.69 30.3698 1465.01 28.8281C1464.33 27.276 1464 25.5729 1464 23.7188ZM1468.95 23.7188C1468.95 24.9792 1469.17 26.1146 1469.62 27.125C1470.08 28.1354 1470.71 29 1471.51 29.7188C1472.32 30.4271 1473.28 30.974 1474.37 31.3594C1475.47 31.7448 1476.67 31.9375 1477.96 31.9375C1479.26 31.9375 1480.45 31.7448 1481.54 31.3594C1482.65 30.974 1483.6 30.4271 1484.4 29.7188C1485.2 29 1485.83 28.1354 1486.29 27.125C1486.75 26.1146 1486.98 24.9792 1486.98 23.7188C1486.98 22.4583 1486.75 21.3281 1486.29 20.3281C1485.83 19.3281 1485.2 18.4844 1484.4 17.7969C1483.6 17.099 1482.65 16.5677 1481.54 16.2031C1480.45 15.8385 1479.26 15.6562 1477.96 15.6562C1476.67 15.6562 1475.47 15.8385 1474.37 16.2031C1473.28 16.5677 1472.32 17.099 1471.51 17.7969C1470.71 18.4844 1470.08 19.3281 1469.62 20.3281C1469.17 21.3281 1468.95 22.4583 1468.95 23.7188ZM1496.01 11.5781H1500.96L1509.84 20.4844L1518.71 11.5781H1523.66V36H1518.71V18.4375L1509.84 26.9844L1500.96 18.4375V36H1496.01V11.5781ZM1529.18 11.5781H1549.97V15.9219H1534.13V20.7969H1548.16V24.875H1534.13V31.6719H1550.3V36H1529.18V11.5781ZM1563.55 11.5781H1585.39V15.9219H1568.5V22.3125H1582.84V26.3906H1568.5V36H1563.55V11.5781ZM1588.73 11.5781H1593.69V31.6562H1607.89V36H1588.73V11.5781ZM1611.26 11.5781H1632.06V15.9219H1616.21V20.7969H1630.25V24.875H1616.21V31.6719H1632.39V36H1611.26V11.5781ZM1643.38 23.5938L1633.99 11.5781H1640.06L1646.54 19.9844L1653.06 11.5781H1659.02L1649.46 23.5469L1659.35 36H1653.27L1646.32 27.2188L1639.21 36H1633.23L1643.38 23.5938ZM1667.66 11.5781H1673.07L1679.69 27.3438L1681.22 31.1562L1682.43 27.3438L1684.86 21.5938L1680.47 11.5781H1685.57L1687.36 16.3438L1689.04 11.5781H1694.13L1689.74 21.5938L1692.22 27.4688L1693.72 31.1562L1694.88 27.4062L1701.54 11.5781H1706.94L1696.16 36H1691.25L1689.08 31.1562L1687.32 26.4531L1685.55 31.1562L1683.35 36H1678.44L1667.66 11.5781ZM1708.66 11.5781H1713.64V36H1708.66V11.5781ZM1725.89 15.9219H1716.87V11.5781H1739.86V15.9219H1730.84V36H1725.89V15.9219ZM1743.7 11.5781H1748.65V17.9531H1763.84V11.5781H1768.81V36H1763.84V22.1875H1748.65V36H1743.7V11.5781ZM1782.57 11.5781H1787.52V25.0312C1787.52 26.1354 1787.67 27.1198 1787.98 27.9844C1788.28 28.8385 1788.73 29.5625 1789.32 30.1562C1789.92 30.75 1790.67 31.2031 1791.55 31.5156C1792.44 31.8177 1793.47 31.9688 1794.65 31.9688C1795.81 31.9688 1796.84 31.8177 1797.73 31.5156C1798.62 31.2031 1799.37 30.75 1799.96 30.1562C1800.56 29.5625 1801.02 28.8385 1801.32 27.9844C1801.62 27.1198 1801.77 26.1354 1801.77 25.0312V11.5781H1806.73V25.625C1806.73 27.2292 1806.46 28.6875 1805.91 30C1805.37 31.3125 1804.59 32.4375 1803.55 33.375C1802.52 34.3125 1801.26 35.0365 1799.76 35.5469C1798.27 36.0573 1796.56 36.3125 1794.65 36.3125C1792.73 36.3125 1791.02 36.0573 1789.52 35.5469C1788.03 35.0365 1786.77 34.3125 1785.74 33.375C1784.71 32.4375 1783.92 31.3125 1783.38 30C1782.84 28.6875 1782.57 27.2292 1782.57 25.625V11.5781ZM1812.47 28.7344C1813.36 29.2344 1814.25 29.6875 1815.16 30.0938C1816.08 30.4896 1817.03 30.8281 1818 31.1094C1818.98 31.3802 1820.01 31.5885 1821.08 31.7344C1822.17 31.8802 1823.32 31.9531 1824.54 31.9531C1826 31.9531 1827.25 31.8594 1828.29 31.6719C1829.32 31.474 1830.16 31.2083 1830.8 30.875C1831.46 30.5312 1831.93 30.125 1832.22 29.6562C1832.53 29.1875 1832.68 28.6771 1832.68 28.125C1832.68 27.2396 1832.31 26.5417 1831.57 26.0312C1830.83 25.5104 1829.69 25.25 1828.15 25.25C1827.47 25.25 1826.75 25.2969 1826 25.3906C1825.25 25.474 1824.49 25.5677 1823.72 25.6719C1822.96 25.776 1822.21 25.875 1821.46 25.9688C1820.72 26.0521 1820.02 26.0938 1819.36 26.0938C1818.27 26.0938 1817.22 25.9531 1816.21 25.6719C1815.21 25.3906 1814.32 24.9688 1813.54 24.4062C1812.77 23.8438 1812.15 23.1406 1811.69 22.2969C1811.23 21.4531 1811 20.4688 1811 19.3438C1811 18.6771 1811.09 18.0156 1811.27 17.3594C1811.46 16.7031 1811.75 16.0781 1812.15 15.4844C1812.55 14.8802 1813.07 14.3229 1813.71 13.8125C1814.34 13.2917 1815.11 12.8438 1816 12.4688C1816.91 12.0938 1817.95 11.8021 1819.13 11.5938C1820.32 11.375 1821.67 11.2656 1823.18 11.2656C1824.27 11.2656 1825.37 11.3281 1826.47 11.4531C1827.58 11.5677 1828.65 11.7344 1829.69 11.9531C1830.74 12.1719 1831.75 12.4375 1832.72 12.75C1833.69 13.0521 1834.59 13.3906 1835.43 13.7656L1833.25 17.7656C1832.57 17.4635 1831.83 17.1875 1831.04 16.9375C1830.24 16.6771 1829.42 16.4531 1828.55 16.2656C1827.69 16.0781 1826.79 15.9323 1825.86 15.8281C1824.95 15.7135 1824.01 15.6562 1823.05 15.6562C1821.69 15.6562 1820.56 15.7552 1819.68 15.9531C1818.8 16.151 1818.1 16.4062 1817.58 16.7188C1817.06 17.0208 1816.7 17.3646 1816.49 17.75C1816.29 18.125 1816.19 18.5 1816.19 18.875C1816.19 19.6042 1816.52 20.2031 1817.18 20.6719C1817.83 21.1302 1818.83 21.3594 1820.18 21.3594C1820.72 21.3594 1821.34 21.3229 1822.04 21.25C1822.74 21.1667 1823.48 21.0781 1824.25 20.9844C1825.04 20.8906 1825.83 20.8073 1826.63 20.7344C1827.44 20.651 1828.23 20.6094 1828.99 20.6094C1830.43 20.6094 1831.7 20.7708 1832.8 21.0938C1833.92 21.4167 1834.85 21.8802 1835.6 22.4844C1836.35 23.0781 1836.92 23.8021 1837.3 24.6562C1837.69 25.5 1837.88 26.4479 1837.88 27.5C1837.88 28.9062 1837.55 30.1615 1836.9 31.2656C1836.25 32.3594 1835.32 33.2865 1834.11 34.0469C1832.92 34.7969 1831.47 35.3698 1829.77 35.7656C1828.07 36.151 1826.18 36.3438 1824.1 36.3438C1822.72 36.3438 1821.38 36.2552 1820.07 36.0781C1818.75 35.9115 1817.49 35.6719 1816.29 35.3594C1815.09 35.0365 1813.94 34.6562 1812.85 34.2188C1811.77 33.7708 1810.76 33.2812 1809.83 32.75L1812.47 28.7344Z" fill="white"/>
<path d="M1876.03 0L1896.81 12V36L1876.03 48L1855.24 36V12L1876.03 0Z" fill="black"/>
</svg>
