<svg width="48" height="48" viewBox="0 0 48 48" fill="none" xmlns="http://www.w3.org/2000/svg">
<path d="M39.5237 14.5827C38.4104 15.076 37.2144 15.4094 35.957 15.56C37.2544 14.7837 38.2249 13.562 38.6877 12.1227C37.4688 12.8467 36.1348 13.3563 34.7437 13.6294C33.8082 12.6305 32.5691 11.9685 31.2188 11.746C29.8685 11.5235 28.4825 11.7531 27.276 12.399C26.0695 13.045 25.1101 14.0712 24.5466 15.3183C23.9831 16.5654 23.8471 17.9637 24.1597 19.296C21.6899 19.172 19.2739 18.5301 17.0683 17.4119C14.8627 16.2937 12.9168 14.7242 11.357 12.8054C10.8237 13.7254 10.517 14.792 10.517 15.928C10.5164 16.9507 10.7683 17.9577 11.2502 18.8597C11.7321 19.7617 12.4292 20.5307 13.2797 21.0987C12.2934 21.0673 11.3289 20.8008 10.4664 20.3214V20.4014C10.4663 21.8357 10.9624 23.2259 11.8706 24.336C12.7788 25.4462 14.0431 26.2079 15.449 26.492C14.5341 26.7396 13.5748 26.7761 12.6437 26.5987C13.0404 27.8328 13.813 28.9121 14.8535 29.6853C15.894 30.4585 17.1502 30.8869 18.4464 30.9107C16.2461 32.6379 13.5289 33.5748 10.7317 33.5707C10.2362 33.5708 9.74113 33.5419 9.24902 33.484C12.0883 35.3096 15.3935 36.2784 18.769 36.2747C30.1957 36.2747 36.4424 26.8107 36.4424 18.6027C36.4424 18.336 36.4357 18.0667 36.4237 17.8C37.6387 16.9213 38.6876 15.8332 39.521 14.5867L39.5237 14.5827V14.5827Z" fill="white"/>
</svg>
