<svg width="48" height="48" viewBox="0 0 48 48" fill="none" xmlns="http://www.w3.org/2000/svg">
<circle cx="24" cy="24" r="24" fill="black"/>
<path d="M35.6425 16.9371C34.8075 17.3071 33.9105 17.5571 32.9675 17.6701C33.9405 17.0879 34.6685 16.1715 35.0155 15.0921C34.1014 15.6351 33.1009 16.0173 32.0575 16.2221C31.3559 15.4729 30.4266 14.9764 29.4139 14.8096C28.4011 14.6427 27.3616 14.8149 26.4568 15.2993C25.5519 15.7838 24.8323 16.5534 24.4097 17.4888C23.9871 18.4241 23.8851 19.4728 24.1195 20.4721C22.2672 20.3791 20.4552 19.8976 18.8009 19.059C17.1467 18.2203 15.6874 17.0432 14.5175 15.6041C14.1175 16.2941 13.8875 17.0941 13.8875 17.9461C13.8871 18.7131 14.076 19.4683 14.4374 20.1448C14.7988 20.8213 15.3217 21.3981 15.9595 21.8241C15.2198 21.8005 14.4964 21.6007 13.8495 21.2411V21.3011C13.8494 22.3768 14.2216 23.4194 14.9027 24.2521C15.5839 25.0847 16.5321 25.656 17.5865 25.8691C16.9003 26.0548 16.1809 26.0821 15.4825 25.9491C15.78 26.8747 16.3595 27.6841 17.1399 28.264C17.9203 28.8439 18.8624 29.1652 19.8345 29.1831C18.1844 30.4785 16.1464 31.1812 14.0485 31.1781C13.6769 31.1782 13.3056 31.1565 12.9365 31.1131C15.066 32.4822 17.5449 33.2089 20.0765 33.2061C28.6465 33.2061 33.3315 26.1081 33.3315 19.9521C33.3315 19.7521 33.3265 19.5501 33.3175 19.3501C34.2288 18.691 35.0154 17.875 35.6405 16.9401L35.6425 16.9371Z" fill="white"/>
</svg>
